<svg width="60" height="60" viewBox="0 0 60 60" fill="none" xmlns="http://www.w3.org/2000/svg">
<path fill-rule="evenodd" clip-rule="evenodd" d="M40.306 49.1046L39.847 49.2551L29.9712 58.1127L19.0652 48.8742L18.6787 48.7314C17.0836 48.1287 15.5377 47.3977 14.0797 46.5408C6.24234 41.9377 1.56234 34.3094 1.56234 26.1344C1.56234 12.5547 14.3205 1.50647 30.0039 1.50647C45.6865 1.50647 58.4455 12.5547 58.4455 26.1428C58.4455 36.2228 51.1558 45.4459 40.306 49.1046M57.5992 16.0913C56.0743 12.9278 53.8925 10.1022 51.12 7.67209C48.3693 5.25652 45.159 3.36537 41.5979 2.04932C37.9208 0.690273 34.0239 0 30.0039 0C25.9831 0 22.0792 0.690273 18.4021 2.04241C14.841 3.36537 11.6384 5.25652 8.88 7.66518C6.10753 10.0946 3.92571 12.9278 2.40078 16.0844C0.80961 19.3776 0 22.8711 0 26.4807C0 35.3675 5.01351 43.6147 13.4042 48.5464C14.827 49.3802 16.3294 50.1066 17.8769 50.7101L27.9748 59.2667C28.5514 59.7558 29.2668 60 29.9813 60C30.7262 60 31.4704 59.7343 32.054 59.2161L41.1234 51.0917C46.5304 49.186 51.1644 45.9581 54.5353 41.7373C58.1104 37.2655 60 31.9883 60 26.4876C60 22.8788 59.1904 19.3845 57.5992 16.0913" fill="black"/>
<path fill-rule="evenodd" clip-rule="evenodd" d="M30.0037 39.3149C26.5744 39.3149 23.3344 38.1355 20.883 35.9933C18.3653 33.7858 16.9791 30.8381 16.9791 27.6816C16.9791 26.5314 17.9274 25.5962 19.0946 25.5962C20.2627 25.5962 21.211 26.5314 21.211 27.6816C21.211 31.7948 25.1515 35.1379 30.0037 35.1379C34.8482 35.1379 38.7957 31.7948 38.7957 27.6816C38.7957 26.5314 39.7448 25.5962 40.9121 25.5962C42.0793 25.5962 43.0284 26.5314 43.0284 27.6816C43.0284 30.8381 41.6422 33.7858 39.1245 35.9933C36.6731 38.1355 33.4331 39.3149 30.0037 39.3149" fill="#F24639"/>
</svg>
