<svg width="60" height="60" viewBox="0 0 60 60" fill="none" xmlns="http://www.w3.org/2000/svg">
<path fill-rule="evenodd" clip-rule="evenodd" d="M22.7719 46.7496H42.7315V17.7143H27.6533L22.7719 22.5935V46.7496ZM43.7096 48.7065H21.7938C21.253 48.7065 20.8148 48.2692 20.8148 47.7285V22.1885C20.8148 21.928 20.9182 21.6802 21.1014 21.4962L26.5559 16.0447C26.7398 15.8608 26.9877 15.7574 27.2482 15.7574H43.7096C44.2504 15.7574 44.6886 16.1947 44.6886 16.7362V47.7285C44.6886 48.2692 44.2504 48.7065 43.7096 48.7065V48.7065Z" fill="#F24639"/>
<path fill-rule="evenodd" clip-rule="evenodd" d="M21.7936 23.1658C21.5433 23.1658 21.2923 23.0703 21.102 22.8792C20.7191 22.4972 20.7191 21.8775 21.102 21.4954L26.5573 16.0415C26.9394 15.6595 27.5584 15.6595 27.9413 16.0415C28.3234 16.4236 28.3234 17.0433 27.9413 17.4253L22.4852 22.8792C22.2941 23.0703 22.0439 23.1658 21.7936 23.1658" fill="#F24639"/>
<path fill-rule="evenodd" clip-rule="evenodd" d="M27.249 23.1742H27.2474L21.7913 23.1655C21.2513 23.1647 20.8139 22.7258 20.8147 22.1851C20.8163 21.6452 21.2537 21.2086 21.7937 21.2086H21.7945L26.2708 21.2157V16.7328C26.2708 16.1921 26.7082 15.7547 27.249 15.7547C27.7897 15.7547 28.2279 16.1921 28.2279 16.7328V22.1962C28.2279 22.4559 28.1245 22.7053 27.9405 22.8885C27.7574 23.0708 27.5079 23.1742 27.249 23.1742" fill="#F24639"/>
<path fill-rule="evenodd" clip-rule="evenodd" d="M40.391 23.5959H31.1944C30.6528 23.5959 30.2154 23.1578 30.2154 22.6171C30.2154 22.0763 30.6528 21.639 31.1944 21.639H40.391C40.9318 21.639 41.3691 22.0763 41.3691 22.6171C41.3691 23.1578 40.9318 23.5959 40.391 23.5959" fill="#F24639"/>
<path fill-rule="evenodd" clip-rule="evenodd" d="M40.391 27.4407H25.113C24.5722 27.4407 24.1349 27.0026 24.1349 26.4627C24.1349 25.9211 24.5722 25.4838 25.113 25.4838H40.391C40.9318 25.4838 41.3691 25.9211 41.3691 26.4627C41.3691 27.0026 40.9318 27.4407 40.391 27.4407" fill="#F24639"/>
<path fill-rule="evenodd" clip-rule="evenodd" d="M40.391 31.2867H25.113C24.5722 31.2867 24.1349 30.8494 24.1349 30.3079C24.1349 29.7671 24.5722 29.3298 25.113 29.3298H40.391C40.9318 29.3298 41.3691 29.7671 41.3691 30.3079C41.3691 30.8494 40.9318 31.2867 40.391 31.2867" fill="#F24639"/>
<path fill-rule="evenodd" clip-rule="evenodd" d="M40.391 35.1315H25.113C24.5722 35.1315 24.1349 34.6942 24.1349 34.1535C24.1349 33.6127 24.5722 33.1746 25.113 33.1746H40.391C40.9318 33.1746 41.3691 33.6127 41.3691 34.1535C41.3691 34.6942 40.9318 35.1315 40.391 35.1315" fill="#F24639"/>
<path fill-rule="evenodd" clip-rule="evenodd" d="M40.391 38.9775H25.113C24.5722 38.9775 24.1349 38.5402 24.1349 37.9994C24.1349 37.4587 24.5722 37.0206 25.113 37.0206H40.391C40.9318 37.0206 41.3691 37.4587 41.3691 37.9994C41.3691 38.5402 40.9318 38.9775 40.391 38.9775" fill="#F24639"/>
<path fill-rule="evenodd" clip-rule="evenodd" d="M40.391 42.8227H25.113C24.5722 42.8227 24.1349 42.3854 24.1349 41.8439C24.1349 41.3031 24.5722 40.8658 25.113 40.8658H40.391C40.9318 40.8658 41.3691 41.3031 41.3691 41.8439C41.3691 42.3854 40.9318 42.8227 40.391 42.8227" fill="#F24639"/>
<path fill-rule="evenodd" clip-rule="evenodd" d="M18.3874 44.2426H16.2905C15.7505 44.2426 15.3124 43.8045 15.3124 43.2638V12.2723C15.3124 11.7308 15.7505 11.2935 16.2905 11.2935H38.2072C38.748 11.2935 39.1862 11.7308 39.1862 12.2723V13.8898C39.1862 14.4305 38.748 14.8678 38.2072 14.8678C37.6664 14.8678 37.229 14.4305 37.229 13.8898V13.2504H17.2695V42.2858H18.3874C18.929 42.2858 19.3663 42.7231 19.3663 43.2638C19.3663 43.8045 18.929 44.2426 18.3874 44.2426" fill="black"/>
<path fill-rule="evenodd" clip-rule="evenodd" d="M29.9975 60C18.0417 60 7.23612 52.9144 2.47005 41.9506C2.25373 41.4548 2.4811 40.8778 2.97689 40.6631C3.47347 40.4468 4.04821 40.6757 4.26453 41.1699C8.72034 51.4201 18.8217 58.0431 29.9975 58.0431C45.4626 58.0431 58.0429 45.4634 58.0429 30.0008C58.0429 14.5374 45.4626 1.9569 29.9975 1.9569C19.4398 1.9569 9.89034 7.8276 5.0919 17.0887L8.95639 15.8533C9.4735 15.6891 10.0222 15.9725 10.1864 16.4864C10.3514 17.0019 10.068 17.5521 9.55323 17.7163L3.55163 19.6353C3.18689 19.7529 2.78821 19.6448 2.53084 19.3638C2.27268 19.0811 2.20321 18.6746 2.35242 18.3225C7.06086 7.19214 17.9114 0 29.9975 0C46.541 0 60 13.4591 60 30.0008C60 46.5425 46.541 60 29.9975 60" fill="black"/>
<path fill-rule="evenodd" clip-rule="evenodd" d="M3.25361 19.6817C2.8636 19.6817 2.49492 19.4473 2.34255 19.0628L0.0680671 13.2963C-0.129302 12.7935 0.117015 12.2251 0.619911 12.0262C1.12518 11.8304 1.69123 12.0759 1.88939 12.5772L4.16387 18.3445C4.36203 18.8465 4.11492 19.4157 3.61282 19.6146C3.4944 19.6596 3.37282 19.6817 3.25361 19.6817" fill="black"/>
</svg>
