<svg width="60" height="60" viewBox="0 0 60 60" fill="none" xmlns="http://www.w3.org/2000/svg">
<path fill-rule="evenodd" clip-rule="evenodd" d="M7.40493 42.1435H52.5943V9.33446H7.40493V42.1435ZM53.4748 44.7082H6.52363C6.03662 44.7082 5.64233 44.1341 5.64233 43.4258V8.05209C5.64233 7.3438 6.03662 6.76971 6.52363 6.76971H53.4748C53.9618 6.76971 54.3561 7.3438 54.3561 8.05209V43.4258C54.3561 44.1341 53.9618 44.7082 53.4748 44.7082V44.7082Z" fill="black"/>
<path fill-rule="evenodd" clip-rule="evenodd" d="M1.97377 6.76973H58.027V2.56392H1.97377V6.76973ZM59.0135 9.33447H0.986494C0.441039 9.33447 0 8.76039 0 8.0521V1.28154C0 0.574085 0.441039 0 0.986494 0H59.0135C59.559 0 60 0.574085 60 1.28154V8.0521C60 8.76039 59.559 9.33447 59.0135 9.33447V9.33447Z" fill="black"/>
<path fill-rule="evenodd" clip-rule="evenodd" d="M57.5617 44.7081H2.43811C1.77109 44.7081 1.23187 44.134 1.23187 43.4257C1.23187 42.7175 1.77109 42.1434 2.43811 42.1434H57.5617C58.2288 42.1434 58.768 42.7175 58.768 43.4257C58.768 44.134 58.2288 44.7081 57.5617 44.7081" fill="black"/>
<path fill-rule="evenodd" clip-rule="evenodd" d="M29.9994 51.6744C29.3332 51.6744 28.7932 51.1003 28.7932 50.392V43.4259C28.7932 42.7176 29.3332 42.1436 29.9994 42.1436C30.6657 42.1436 31.2057 42.7176 31.2057 43.4259V50.392C31.2057 51.1003 30.6657 51.6744 29.9994 51.6744" fill="black"/>
<path fill-rule="evenodd" clip-rule="evenodd" d="M29.9994 51.7681C28.5291 51.7681 27.3337 53.0389 27.3337 54.6021C27.3337 56.1645 28.5291 57.4353 29.9994 57.4353C31.4691 57.4353 32.6652 56.1645 32.6652 54.6021C32.6652 53.0389 31.4691 51.7681 29.9994 51.7681M29.9994 60C27.1997 60 24.9213 57.5786 24.9213 54.6021C24.9213 51.6257 27.1997 49.2034 29.9994 49.2034C32.7992 49.2034 35.0776 51.6257 35.0776 54.6021C35.0776 57.5786 32.7992 60 29.9994 60" fill="black"/>
<path fill-rule="evenodd" clip-rule="evenodd" d="M47.3645 18.1934L47.2399 16.9914L46.1092 17.1248C45.4469 17.1985 44.85 16.694 44.7767 15.9915C44.7043 15.2882 45.1812 14.6545 45.8427 14.5758L48.1718 14.3016C48.8388 14.2187 49.4295 14.7307 49.5043 15.4332L49.763 17.9093C49.8362 18.6134 49.3593 19.2472 48.697 19.325C48.6526 19.3308 48.6074 19.3333 48.563 19.3333C47.956 19.3333 47.4347 18.8487 47.3645 18.1934Z" fill="#F24639"/>
<path fill-rule="evenodd" clip-rule="evenodd" d="M18.375 36.9695L14.1922 34.0046C13.6374 33.612 13.4878 32.8159 13.8579 32.226C14.2265 31.6362 14.973 31.4772 15.5301 31.8707L18.8192 34.2018L25.9545 25.2592C26.313 24.8102 26.9114 24.6793 27.4054 24.9386L34.2649 28.5164L47.4563 14.663C47.9317 14.1652 48.6937 14.1701 49.1636 14.6746C49.6311 15.1783 49.6265 15.9901 49.1535 16.488L35.3504 30.9818C34.9834 31.3645 34.4286 31.4598 33.9711 31.2204L27.1865 27.6798L19.9639 36.7317C19.727 37.0291 19.3865 37.1849 19.0428 37.1849C18.8122 37.1849 18.58 37.1145 18.375 36.9695Z" fill="#F24639"/>
</svg>
