<?xml version="1.0" encoding="UTF-8"?>
<svg id="_图层_2" data-name="图层 2" xmlns="http://www.w3.org/2000/svg" xmlns:xlink="http://www.w3.org/1999/xlink" viewBox="0 0 60 60">
  <defs>
    <style>
      .cls-1 {
        fill: #fff;
      }

      .cls-2 {
        fill: url(#_未命名的渐变_4);
      }
    </style>
    <linearGradient id="_未命名的渐变_4" data-name="未命名的渐变 4" x1="12.69" y1="47.31" x2="50.15" y2="9.85" gradientUnits="userSpaceOnUse">
      <stop offset="0" stop-color="#fc2774"/>
      <stop offset=".29" stop-color="#fc3078"/>
      <stop offset=".78" stop-color="#fe4984"/>
      <stop offset=".99" stop-color="#ff578b"/>
    </linearGradient>
  </defs>
  <g id="_图层_1-2" data-name="图层 1">
    <g>
      <rect class="cls-2" width="60" height="60" rx="12" ry="12"/>
      <g>
        <path class="cls-1" d="M12.97,40.58c-.22,0-.44-.11-.56-.32-1.58-2.71-2.41-5.8-2.41-8.95,0-9.87,8.09-17.89,18.02-17.89,.36,0,.65,.29,.65,.64V31.31c0,.23-.12,.44-.32,.56l-15.05,8.62c-.1,.06-.21,.09-.32,.09ZM27.37,14.72c-8.92,.34-16.08,7.65-16.08,16.59,0,2.7,.66,5.37,1.92,7.74l14.15-8.11V14.72Z"/>
        <path class="cls-1" d="M47.03,37.96c-.11,0-.22-.03-.32-.09l-15.05-8.63c-.2-.12-.32-.33-.32-.56V11.45c0-.36,.29-.65,.65-.65,9.94,0,18.02,8.03,18.02,17.89,0,3.15-.83,6.24-2.41,8.95-.12,.21-.34,.32-.56,.32Zm-14.4-9.64l14.15,8.11c1.26-2.37,1.92-5.04,1.92-7.74,0-8.94-7.15-16.25-16.08-16.59V28.32Z"/>
        <path class="cls-1" d="M28.02,49.2c-6.41,0-12.4-3.43-15.61-8.95-.18-.31-.07-.7,.24-.88,0,0,.02-.01,.03-.02l15.02-8.61c.2-.11,.45-.11,.65,0l15.04,8.62c.15,.09,.26,.23,.31,.39,.04,.17,.02,.34-.06,.49-3.22,5.52-9.2,8.94-15.61,8.94Zm-14.15-9.04c3.05,4.8,8.42,7.75,14.15,7.75s11.1-2.95,14.15-7.75l-14.15-8.11-14.15,8.11Z"/>
      </g>
    </g>
  </g>
</svg>