<?xml version="1.0" encoding="UTF-8"?>
<svg id="_图层_2" data-name="图层 2" xmlns="http://www.w3.org/2000/svg" xmlns:xlink="http://www.w3.org/1999/xlink" viewBox="0 0 60 60">
  <defs>
    <style>
      .cls-1 {
        fill: #fff;
      }

      .cls-2 {
        fill: url(#_未命名的渐变_4);
      }
    </style>
    <linearGradient id="_未命名的渐变_4" data-name="未命名的渐变 4" x1="12.45" y1="47.55" x2="49.91" y2="10.09" gradientUnits="userSpaceOnUse">
      <stop offset="0" stop-color="#fc2774"/>
      <stop offset=".29" stop-color="#fc3078"/>
      <stop offset=".78" stop-color="#fe4984"/>
      <stop offset=".99" stop-color="#ff578b"/>
    </linearGradient>
  </defs>
  <g id="_图层_1-2" data-name="图层 1">
    <g>
      <rect class="cls-2" width="60" height="60" rx="12" ry="12"/>
      <g>
        <path class="cls-1" d="M47.58,13.57c-.23,0-.45-.11-.58-.32l-1.01-1.63-1.64,1.01c-.32,.2-.74,.1-.93-.22-.2-.32-.1-.74,.22-.93l2.21-1.37c.15-.1,.34-.12,.51-.08,.17,.04,.33,.15,.42,.3l1.37,2.21c.2,.32,.1,.74-.22,.93-.11,.07-.23,.1-.36,.1Z"/>
        <path class="cls-1" d="M19.37,50h-5.63c-.38,0-.68-.3-.68-.68v-10.23c0-.38,.3-.68,.68-.68h5.63c.38,0,.68,.3,.68,.68v10.23c0,.38-.3,.68-.68,.68Zm-4.95-1.36h4.27v-8.87h-4.27v8.87Z"/>
        <path class="cls-1" d="M28.32,50h-5.63c-.38,0-.68-.3-.68-.68v-11.83c0-.38,.3-.68,.68-.68h5.63c.38,0,.68,.3,.68,.68v11.83c0,.38-.3,.68-.68,.68Zm-4.95-1.36h4.27v-10.47h-4.27v10.47Z"/>
        <path class="cls-1" d="M37.26,50h-5.63c-.38,0-.68-.3-.68-.68v-15.64c0-.38,.3-.68,.68-.68h5.63c.38,0,.68,.3,.68,.68v15.64c0,.38-.3,.68-.68,.68Zm-4.95-1.36h4.27v-14.29h-4.27v14.29Z"/>
        <path class="cls-1" d="M46.21,50h-5.63c-.38,0-.68-.3-.68-.68V27.27c0-.38,.3-.68,.68-.68h5.63c.38,0,.68,.3,.68,.68v22.05c0,.38-.3,.68-.68,.68Zm-4.95-1.36h4.28V27.95h-4.28v20.69Z"/>
        <path class="cls-1" d="M12.86,36.05c-.29,0-.45,0-.47,0-.37-.02-.66-.33-.65-.71,.02-.37,.34-.67,.71-.65,.26,0,27.19,.88,33.1-24.16,.09-.36,.45-.59,.82-.5,.37,.09,.59,.45,.5,.82-5.73,24.27-30.29,25.21-34.01,25.21Z"/>
      </g>
    </g>
  </g>
</svg>