<?xml version="1.0" encoding="UTF-8"?>
<svg id="_图层_2" data-name="图层 2" xmlns="http://www.w3.org/2000/svg" xmlns:xlink="http://www.w3.org/1999/xlink" viewBox="0 0 60 60">
  <defs>
    <style>
      .cls-1 {
        fill: #fff;
      }

      .cls-2 {
        fill: url(#_未命名的渐变_4);
      }
    </style>
    <linearGradient id="_未命名的渐变_4" data-name="未命名的渐变 4" x1="3.51" y1="56.49" x2="56.49" y2="3.51" gradientUnits="userSpaceOnUse">
      <stop offset="0" stop-color="#fc2774"/>
      <stop offset=".29" stop-color="#fc3078"/>
      <stop offset=".78" stop-color="#fe4984"/>
      <stop offset=".99" stop-color="#ff578b"/>
    </linearGradient>
  </defs>
  <g id="_图层_1-2" data-name="图层 1">
    <g>
      <rect class="cls-2" x="0" width="60" height="60" rx="12" ry="12"/>
      <g>
        <path class="cls-1" d="M48.4,20.59c-1.02-2.14-2.47-4.05-4.32-5.7-1.83-1.63-3.97-2.91-6.35-3.8-2.45-.92-5.05-1.39-7.73-1.39s-5.28,.47-7.73,1.38c-2.37,.9-4.51,2.17-6.35,3.8-1.85,1.64-3.3,3.56-4.32,5.7-1.06,2.23-1.6,4.59-1.6,7.03,0,6.01,3.34,11.59,8.94,14.93,.95,.56,1.95,1.06,2.98,1.46l6.73,5.79c.38,.33,.86,.5,1.34,.5s.99-.18,1.38-.53l6.05-5.5c3.6-1.29,6.69-3.47,8.94-6.33,2.38-3.03,3.64-6.6,3.64-10.32,0-2.44-.54-4.81-1.6-7.03Zm-11.53,22.34l-.31,.1-6.58,5.99-7.27-6.25-.26-.1c-1.06-.41-2.09-.9-3.07-1.48-5.22-3.11-8.34-8.28-8.34-13.81,0-9.19,8.51-16.66,18.96-16.66s18.96,7.48,18.96,16.67c0,6.82-4.86,13.06-12.09,15.54Z"/>
        <path class="cls-1" d="M30,36.3c-2.29,0-4.45-.8-6.08-2.25-1.68-1.49-2.6-3.49-2.6-5.62,0-.78,.63-1.41,1.41-1.41s1.41,.63,1.41,1.41c0,2.78,2.63,5.04,5.86,5.04s5.86-2.26,5.86-5.04c0-.78,.63-1.41,1.41-1.41s1.41,.63,1.41,1.41c0,2.14-.92,4.13-2.6,5.62-1.63,1.45-3.79,2.25-6.08,2.25h0Z"/>
      </g>
    </g>
  </g>
</svg>