<svg width="65" height="60" viewBox="0 0 65 60" fill="none" xmlns="http://www.w3.org/2000/svg">
<path fill-rule="evenodd" clip-rule="evenodd" d="M53.6611 60H6.94495C3.11575 60 0 56.8708 0 53.0251V22.5205C0 18.6695 3.11575 15.5359 6.94495 15.5359H53.6611C57.4912 15.5359 60.6069 18.6695 60.6069 22.5205V31.6652C60.6069 32.1888 60.1843 32.6124 59.663 32.6124C59.1408 32.6124 58.719 32.1888 58.719 31.6652V22.5205C58.719 19.7141 56.4503 17.4312 53.6611 17.4312H6.94495C4.15579 17.4312 1.88709 19.7141 1.88709 22.5205V53.0251C1.88709 55.8263 4.15579 58.1048 6.94495 58.1048H53.6611C56.4503 58.1048 58.719 55.8263 58.719 53.0251V43.8804C58.719 43.3568 59.1408 42.9332 59.663 42.9332C60.1843 42.9332 60.6069 43.3568 60.6069 43.8804V53.0251C60.6069 56.8708 57.4912 60 53.6611 60" fill="black"/>
<path fill-rule="evenodd" clip-rule="evenodd" d="M52.8706 32.6086C51.5913 32.6086 50.5495 33.6548 50.5495 34.9397V40.6035C50.5495 41.8892 51.5913 42.9346 52.8706 42.9346H60.7918C62.072 42.9346 63.1129 41.8892 63.1129 40.6035V34.9397C63.1129 33.6548 62.072 32.6086 60.7918 32.6086H52.8706ZM60.7918 44.8307H52.8706C50.5503 44.8307 48.6624 42.9346 48.6624 40.6035V34.9397C48.6624 32.6086 50.5503 30.7133 52.8706 30.7133H60.7918C63.112 30.7133 65 32.6086 65 34.9397V40.6035C65 42.9346 63.112 44.8307 60.7918 44.8307V44.8307Z" fill="#F24639"/>
<path fill-rule="evenodd" clip-rule="evenodd" d="M47.4247 14.2716C47.1837 14.2716 46.9418 14.1796 46.7576 13.9936L35.1233 2.30908C34.5731 1.75656 33.6781 1.75568 33.1262 2.30908L21.9547 13.5279C21.5862 13.8989 20.9889 13.8989 20.6204 13.5279C20.2519 13.1578 20.2519 12.5588 20.6204 12.1887L31.7927 0.968998C33.0781 -0.322853 35.1713 -0.322853 36.4576 0.968121L48.0919 12.6535C48.4604 13.0245 48.4604 13.6235 48.0919 13.9936C47.9077 14.1796 47.6658 14.2716 47.4247 14.2716" fill="black"/>
<path fill-rule="evenodd" clip-rule="evenodd" d="M28.6282 13.5106C28.3863 13.5106 28.1453 13.4186 27.961 13.2335C27.5916 12.8634 27.5916 12.2635 27.961 11.8934L36.9808 2.83468C37.3493 2.46457 37.9466 2.46457 38.3151 2.83468C38.6836 3.20478 38.6836 3.80466 38.3151 4.17389L29.2953 13.2335C29.1111 13.4186 28.8692 13.5106 28.6282 13.5106" fill="black"/>
<path fill-rule="evenodd" clip-rule="evenodd" d="M37.286 14.1569C37.045 14.1569 36.8031 14.0648 36.6188 13.8788C36.2503 13.5087 36.2503 12.9097 36.6188 12.5387L41.6313 7.50553C41.9998 7.13455 42.5971 7.13455 42.9656 7.50553C43.3341 7.87476 43.3341 8.47464 42.9656 8.84474L37.9531 13.8788C37.7689 14.0648 37.527 14.1569 37.286 14.1569" fill="black"/>
</svg>
