<svg width="60" height="60" viewBox="0 0 60 60" fill="none" xmlns="http://www.w3.org/2000/svg">
<path fill-rule="evenodd" clip-rule="evenodd" d="M10.5496 60C9.9419 60 9.44819 59.547 9.44819 58.9877V37.2692H2.20284V58.9877C2.20284 59.547 1.70998 60 1.10142 60C0.493709 60 0 59.547 0 58.9877V36.2576C0 35.6983 0.493709 35.2453 1.10142 35.2453H10.5496C11.1573 35.2453 11.651 35.6983 11.651 36.2576V58.9877C11.651 59.547 11.1573 60 10.5496 60" fill="black"/>
<path fill-rule="evenodd" clip-rule="evenodd" d="M26.666 60C26.0583 60 25.5646 59.547 25.5646 58.9877V25.266H18.3193V58.9877C18.3193 59.547 17.8264 60 17.2187 60C16.6101 60 16.1173 59.547 16.1173 58.9877V24.2537C16.1173 23.6943 16.6101 23.2413 17.2187 23.2413H26.666C27.2738 23.2413 27.7675 23.6943 27.7675 24.2537V58.9877C27.7675 59.547 27.2738 60 26.666 60" fill="#F24639"/>
<path fill-rule="evenodd" clip-rule="evenodd" d="M41.6807 58.9877V13.7734H34.4362V58.9877C34.4362 59.547 33.9425 60 33.3348 60C32.7271 60 32.2334 59.547 32.2334 58.9877V12.761C32.2334 12.2017 32.7271 11.7487 33.3348 11.7487H42.7822C43.3899 11.7487 43.8836 12.2017 43.8836 12.761V58.9877C43.8836 59.547 43.3899 60 42.7822 60C42.1736 60 41.6807 59.547 41.6807 58.9877Z" fill="#F24639"/>
<path fill-rule="evenodd" clip-rule="evenodd" d="M58.8986 60C58.2909 60 57.7972 59.547 57.7972 58.9877V2.02468H50.5527V58.9877C50.5527 59.547 50.0589 60 49.4512 60C48.8435 60 48.3498 59.547 48.3498 58.9877V1.01234C48.3498 0.452994 48.8435 0 49.4512 0H58.8986C59.5063 0 60 0.452994 60 1.01234V58.9877C60 59.547 59.5063 60 58.8986 60" fill="black"/>
</svg>
