<svg width="60" height="60" viewBox="0 0 60 60" fill="none" xmlns="http://www.w3.org/2000/svg">
<path fill-rule="evenodd" clip-rule="evenodd" d="M57.3517 55.9946H4.77824C4.35149 55.9946 4.00574 55.6489 4.00574 55.2214V2.64788C4.00574 2.22038 4.35149 1.87463 4.77824 1.87463C5.20574 1.87463 5.55149 2.22038 5.55149 2.64788V54.4481H57.3517C57.7792 54.4481 58.125 54.7939 58.125 55.2214C58.125 55.6489 57.7792 55.9946 57.3517 55.9946" fill="black"/>
<path fill-rule="evenodd" clip-rule="evenodd" d="M6.90916 5.55126C6.71116 5.55126 6.51391 5.47551 6.36241 5.32476L4.77841 3.74076L3.19441 5.32476C2.89291 5.62701 2.40391 5.62701 2.10166 5.32476C1.79941 5.02251 1.79941 4.53351 2.10166 4.23126L4.23241 2.10126C4.53391 1.79901 5.02291 1.79901 5.32516 2.10126L7.45591 4.23126C7.75741 4.53351 7.75741 5.02251 7.45591 5.32476C7.30441 5.47551 7.10716 5.55126 6.90916 5.55126" fill="black"/>
<path fill-rule="evenodd" clip-rule="evenodd" d="M55.2215 58.1253C55.0235 58.1253 54.8255 58.0495 54.6748 57.8988C54.3725 57.5965 54.3725 57.1075 54.6748 56.806L56.2588 55.2213L54.6748 53.6373C54.3725 53.335 54.3725 52.8453 54.6748 52.5438C54.977 52.2415 55.466 52.2415 55.7683 52.5438L57.8983 54.6753C58.2005 54.9768 58.2005 55.4665 57.8983 55.768L55.7683 57.8988C55.6168 58.0495 55.4195 58.1253 55.2215 58.1253" fill="black"/>
<path fill-rule="evenodd" clip-rule="evenodd" d="M49.9107 9.25298C49.6519 9.25298 49.3992 9.12323 49.2522 8.88623L48.1002 7.02323L46.2364 8.17523C45.8749 8.40023 45.3972 8.28848 45.1722 7.92473C44.9479 7.56098 45.0597 7.08473 45.4242 6.86048L47.9457 5.30123C48.1197 5.19248 48.3297 5.15948 48.5292 5.20598C48.7287 5.25398 48.9012 5.37848 49.0092 5.55248L50.5677 8.07398C50.7919 8.43698 50.6794 8.91323 50.3164 9.13748C50.1904 9.21623 50.0502 9.25298 49.9107 9.25298" fill="#F24639"/>
<mask id="mask0_0_7482" style="mask-type:luminance" maskUnits="userSpaceOnUse" x="0" y="0" width="60" height="60">
<path fill-rule="evenodd" clip-rule="evenodd" d="M0 60H60V0H0V60Z" fill="white"/>
</mask>
<g mask="url(#mask0_0_7482)">
<path fill-rule="evenodd" clip-rule="evenodd" d="M12.1297 49.209H16.9995V39.1058H12.1297V49.209ZM17.7727 50.7555H11.3565C10.9297 50.7555 10.584 50.4098 10.584 49.9823V38.3325C10.584 37.905 10.9297 37.5593 11.3565 37.5593H17.7727C18.1995 37.5593 18.546 37.905 18.546 38.3325V49.9823C18.546 50.4098 18.1995 50.7555 17.7727 50.7555V50.7555Z" fill="black"/>
<path fill-rule="evenodd" clip-rule="evenodd" d="M22.323 49.209H27.1927V37.2817H22.323V49.209ZM27.9652 50.7555H21.5497C21.1222 50.7555 20.7765 50.4097 20.7765 49.9822V36.5085C20.7765 36.081 21.1222 35.736 21.5497 35.736H27.9652C28.3927 35.736 28.7385 36.081 28.7385 36.5085V49.9822C28.7385 50.4097 28.3927 50.7555 27.9652 50.7555V50.7555Z" fill="black"/>
<path fill-rule="evenodd" clip-rule="evenodd" d="M32.5163 49.209H37.386V32.934H32.5163V49.209ZM38.1585 50.7555H31.743C31.3155 50.7555 30.9698 50.4098 30.9698 49.9823V32.1608C30.9698 31.7333 31.3155 31.3875 31.743 31.3875H38.1585C38.586 31.3875 38.9318 31.7333 38.9318 32.1608V49.9823C38.9318 50.4098 38.586 50.7555 38.1585 50.7555V50.7555Z" fill="black"/>
<path fill-rule="evenodd" clip-rule="evenodd" d="M42.708 49.209H47.5785V25.6365H42.708V49.209ZM48.3518 50.7555H41.9348C41.508 50.7555 41.1623 50.4098 41.1623 49.9823V24.864C41.1623 24.4365 41.508 24.0908 41.9348 24.0908H48.3518C48.7793 24.0908 49.125 24.4365 49.125 24.864V49.9823C49.125 50.4098 48.7793 50.7555 48.3518 50.7555V50.7555Z" fill="black"/>
<path fill-rule="evenodd" clip-rule="evenodd" d="M10.357 34.8606C10.0292 34.8606 9.84473 34.8538 9.82148 34.8531C9.39473 34.8343 9.06473 34.4728 9.08273 34.0468C9.10148 33.6208 9.46898 33.2848 9.88898 33.3081C10.189 33.3186 40.8677 34.3131 47.599 5.78159C47.6972 5.36609 48.1142 5.11184 48.529 5.20634C48.9452 5.30459 49.2025 5.72084 49.1042 6.13634C42.5807 33.7881 14.5975 34.8606 10.357 34.8606" fill="#F24639"/>
</svg>
