<svg width="62" height="60" viewBox="0 0 62 60" fill="none" xmlns="http://www.w3.org/2000/svg">
<path fill-rule="evenodd" clip-rule="evenodd" d="M26.931 6.11865C13.0992 6.64907 2.01012 18.0749 2.01012 32.0434C2.01012 36.2687 3.03883 40.4273 4.99266 44.1353L26.931 31.4628V6.11865ZM4.61005 46.5251C4.26252 46.5251 3.9256 46.3458 3.73878 46.0227C1.29303 41.7933 0 36.9586 0 32.0434C0 16.6284 12.5322 4.08743 27.936 4.08743C28.4924 4.08743 28.9411 4.53726 28.9411 5.09235V32.0434C28.9411 32.4028 28.7502 32.735 28.4394 32.9143L5.11176 46.3902C4.9535 46.4824 4.78055 46.5251 4.61005 46.5251V46.5251Z" fill="black"/>
<path fill-rule="evenodd" clip-rule="evenodd" d="M35.0682 27.3762L57.0065 40.0504C58.9612 36.3399 59.9899 32.1804 59.9899 27.9568C59.9899 13.9883 48.9 2.56246 35.0682 2.03204V27.3762ZM57.3891 42.4393C57.2186 42.4393 57.0457 42.3966 56.8874 42.3053L33.5598 28.8285C33.249 28.6484 33.0581 28.3162 33.0581 27.9568V1.01314C33.0581 0.45723 33.5076 0 34.0631 0C49.467 0 62 12.5418 62 27.9568C62 32.8712 60.7078 37.7058 58.2604 41.9377C58.0744 42.2601 57.7367 42.4393 57.3891 42.4393V42.4393Z" fill="#F24639"/>
<path fill-rule="evenodd" clip-rule="evenodd" d="M6 45.8777C10.7324 53.3726 19.0454 57.9885 27.9367 57.9885C36.8272 57.9885 45.141 53.3726 49.8734 45.8777L27.9367 33.2043L6 45.8777ZM27.9367 60C17.9938 60 8.7223 54.644 3.73943 46.0232C3.46043 45.5413 3.62522 44.927 4.10573 44.6491C4.12041 44.64 4.13509 44.6318 4.14815 44.6252L27.4333 31.1723C27.7442 30.993 28.1284 30.993 28.4392 31.1723L51.7562 44.6433C51.9871 44.7765 52.1617 44.9994 52.2302 45.2568C52.2996 45.515 52.2677 45.793 52.1348 46.024C47.1503 54.644 37.878 60 27.9367 60V60Z" fill="black"/>
</svg>
