<?xml version="1.0" encoding="UTF-8"?>
<svg id="_图层_2" data-name="图层 2" xmlns="http://www.w3.org/2000/svg" xmlns:xlink="http://www.w3.org/1999/xlink" viewBox="0 0 60 60">
  <defs>
    <style>
      .cls-1 {
        fill: #fff;
      }

      .cls-2 {
        fill: url(#_未命名的渐变_4);
      }
    </style>
    <linearGradient id="_未命名的渐变_4" data-name="未命名的渐变 4" x1="12.69" y1="47.31" x2="50.15" y2="9.85" gradientUnits="userSpaceOnUse">
      <stop offset="0" stop-color="#fc2774"/>
      <stop offset=".29" stop-color="#fc3078"/>
      <stop offset=".78" stop-color="#fe4984"/>
      <stop offset=".99" stop-color="#ff578b"/>
    </linearGradient>
  </defs>
  <g id="_图层_1-2" data-name="图层 1">
    <g>
      <rect class="cls-2" width="60" height="60" rx="12" ry="12"/>
      <g>
        <path class="cls-1" d="M18.08,50c-.37,0-.67-.3-.67-.67v-14.48h-4.44v14.48c0,.37-.3,.67-.67,.67s-.67-.3-.67-.67v-15.15c0-.37,.3-.67,.67-.67h5.79c.37,0,.67,.3,.67,.67v15.15c0,.37-.3,.67-.67,.67Z"/>
        <path class="cls-1" d="M27.96,50c-.37,0-.67-.3-.67-.67V26.84h-4.44v22.48c0,.37-.3,.67-.67,.67s-.67-.3-.67-.67V26.17c0-.37,.3-.67,.67-.67h5.79c.37,0,.67,.3,.67,.67v23.16c0,.37-.3,.67-.67,.67Z"/>
        <path class="cls-1" d="M37.83,50c-.37,0-.67-.3-.67-.67V19.18h-4.44v30.14c0,.37-.3,.67-.67,.67s-.67-.3-.67-.67V18.51c0-.37,.3-.67,.67-.67h5.79c.37,0,.67,.3,.67,.67v30.82c0,.37-.3,.67-.67,.67Z"/>
        <path class="cls-1" d="M47.71,50c-.37,0-.67-.3-.67-.67V11.35h-4.44V49.33c0,.37-.3,.67-.67,.67s-.67-.3-.67-.67V10.67c0-.37,.3-.67,.67-.67h5.79c.37,0,.67,.3,.67,.67V49.33c0,.37-.3,.67-.67,.67Z"/>
      </g>
    </g>
  </g>
</svg>