<?xml version="1.0" encoding="UTF-8"?>
<svg id="_图层_2" data-name="图层 2" xmlns="http://www.w3.org/2000/svg" xmlns:xlink="http://www.w3.org/1999/xlink" viewBox="0 0 60 60">
  <defs>
    <style>
      .cls-1 {
        fill: #fff;
      }

      .cls-2 {
        fill: url(#_未命名的渐变_4);
      }
    </style>
    <linearGradient id="_未命名的渐变_4" data-name="未命名的渐变 4" x1="12.69" y1="47.31" x2="50.15" y2="9.85" gradientUnits="userSpaceOnUse">
      <stop offset="0" stop-color="#fc2774"/>
      <stop offset=".29" stop-color="#fc3078"/>
      <stop offset=".78" stop-color="#fe4984"/>
      <stop offset=".99" stop-color="#ff578b"/>
    </linearGradient>
  </defs>
  <g id="_图层_1-2" data-name="图层 1">
    <g>
      <rect class="cls-2" width="60" height="60" rx="12" ry="12"/>
      <g>
        <g>
          <path class="cls-1" d="M44.89,38.88H15.11c-.31,0-.56-.35-.56-.77V16.75c0-.43,.25-.77,.56-.77h29.78c.31,0,.56,.35,.56,.77v21.35c0,.43-.25,.77-.56,.77Zm-29.22-1.55h28.66V17.53H15.67v19.8Z"/>
          <path class="cls-1" d="M48.4,17.53H11.6c-.35,0-.63-.35-.63-.77v-4.09c0-.43,.28-.77,.63-.77H48.4c.35,0,.63,.35,.63,.77v4.09c0,.43-.28,.77-.63,.77Zm-36.18-1.55H47.78v-2.54H12.22v2.54Z"/>
          <path class="cls-1" d="M47.48,38.88H12.52c-.42,0-.76-.35-.76-.77s.34-.77,.76-.77H47.48c.42,0,.76,.35,.76,.77s-.34,.77-.76,.77Z"/>
          <path class="cls-1" d="M30,43.08c-.42,0-.76-.35-.76-.77v-4.2c0-.43,.34-.77,.76-.77s.77,.35,.77,.77v4.2c0,.43-.34,.77-.77,.77Z"/>
          <path class="cls-1" d="M30,48.11c-1.78,0-3.22-1.46-3.22-3.26s1.44-3.26,3.22-3.26,3.22,1.46,3.22,3.26-1.44,3.26-3.22,3.26Zm0-4.97c-.93,0-1.69,.77-1.69,1.71s.76,1.71,1.69,1.71,1.69-.77,1.69-1.71-.76-1.71-1.69-1.71Z"/>
        </g>
        <g>
          <path class="cls-1" d="M41.77,23.56c-.38,0-.72-.29-.76-.69l-.08-.73-.72,.08c-.42,.04-.8-.26-.84-.68-.05-.42,.26-.81,.68-.85l1.48-.17c.42-.05,.8,.26,.84,.68l.16,1.49c.05,.43-.26,.81-.68,.85-.03,0-.06,0-.09,0Z"/>
          <path class="cls-1" d="M23.05,34.34c-.15,0-.29-.04-.42-.13l-2.65-1.79c-.35-.24-.45-.72-.21-1.07,.23-.36,.71-.45,1.06-.21l2.09,1.41,4.53-5.4c.23-.27,.61-.35,.92-.19l4.35,2.16,8.37-8.36c.3-.3,.78-.3,1.08,0,.3,.3,.29,.79,0,1.09l-8.75,8.75c-.23,.23-.58,.29-.87,.14l-4.3-2.14-4.58,5.46c-.15,.18-.37,.27-.58,.27Z"/>
        </g>
      </g>
    </g>
  </g>
</svg>