<?xml version="1.0" encoding="UTF-8"?>
<svg id="_图层_2" data-name="图层 2" xmlns="http://www.w3.org/2000/svg" xmlns:xlink="http://www.w3.org/1999/xlink" viewBox="0 0 60 60">
  <defs>
    <style>
      .cls-1 {
        fill: #fff;
      }

      .cls-2 {
        fill: url(#_未命名的渐变_4);
      }
    </style>
    <linearGradient id="_未命名的渐变_4" data-name="未命名的渐变 4" x1="12.69" y1="47.31" x2="50.15" y2="9.85" gradientUnits="userSpaceOnUse">
      <stop offset="0" stop-color="#fc2774"/>
      <stop offset=".29" stop-color="#fc3078"/>
      <stop offset=".78" stop-color="#fe4984"/>
      <stop offset=".99" stop-color="#ff578b"/>
    </linearGradient>
  </defs>
  <g id="_图层_1-2" data-name="图层 1">
    <g>
      <rect class="cls-2" width="60" height="60" rx="12" ry="12"/>
      <g>
        <g>
          <path class="cls-1" d="M44.17,50H12.89c-2.56,0-4.65-2.09-4.65-4.65V25.01c0-2.57,2.09-4.66,4.65-4.66h31.28c2.56,0,4.65,2.09,4.65,4.66v6.1c0,.35-.28,.63-.63,.63s-.63-.28-.63-.63v-6.1c0-1.87-1.52-3.39-3.39-3.39H12.89c-1.87,0-3.39,1.52-3.39,3.39v20.34c0,1.87,1.52,3.39,3.39,3.39h31.28c1.87,0,3.39-1.52,3.39-3.39v-6.1c0-.35,.28-.63,.63-.63s.63,.28,.63,.63v6.1c0,2.56-2.09,4.65-4.65,4.65Z"/>
          <path class="cls-1" d="M48.94,39.89h-5.3c-1.55,0-2.82-1.26-2.82-2.82v-3.78c0-1.55,1.26-2.82,2.82-2.82h5.3c1.55,0,2.82,1.26,2.82,2.82v3.78c0,1.55-1.26,2.82-2.82,2.82Zm-5.3-8.15c-.86,0-1.55,.7-1.55,1.55v3.78c0,.86,.7,1.55,1.55,1.55h5.3c.86,0,1.55-.7,1.55-1.55v-3.78c0-.86-.7-1.55-1.55-1.55h-5.3Z"/>
        </g>
        <g>
          <path class="cls-1" d="M39.99,19.51c-.16,0-.32-.06-.45-.19l-7.79-7.79c-.37-.37-.97-.37-1.34,0l-7.48,7.48c-.25,.25-.65,.25-.89,0-.25-.25-.25-.65,0-.89l7.48-7.48c.86-.86,2.26-.86,3.12,0l7.79,7.79c.25,.25,.25,.65,0,.89-.12,.12-.29,.19-.45,.19Z"/>
          <path class="cls-1" d="M27.41,19.01c-.16,0-.32-.06-.45-.19-.25-.25-.25-.65,0-.89l6.04-6.04c.25-.25,.65-.25,.89,0s.25,.65,0,.89l-6.04,6.04c-.12,.12-.29,.19-.45,.19Z"/>
          <path class="cls-1" d="M33.2,19.44c-.16,0-.32-.06-.45-.19-.25-.25-.25-.65,0-.89l3.36-3.36c.25-.25,.65-.25,.89,0s.25,.65,0,.89l-3.36,3.36c-.12,.12-.29,.19-.45,.19Z"/>
        </g>
      </g>
    </g>
  </g>
</svg>