<svg width="60" height="60" viewBox="0 0 60 60" fill="none" xmlns="http://www.w3.org/2000/svg">
<path fill-rule="evenodd" clip-rule="evenodd" d="M59.024 60H0.976C0.4368 60 0 59.5745 0 59.0492V0.951552C0 0.42624 0.4368 0 0.976 0C1.516 0 1.952 0.42624 1.952 0.951552V58.0969H59.024C59.5632 58.0969 60 58.5231 60 59.0492C60 59.5745 59.5632 60 59.024 60" fill="black"/>
<path fill-rule="evenodd" clip-rule="evenodd" d="M9.7044 42.4526C8.1372 42.4526 6.8628 43.6952 6.8628 45.2212C6.8628 46.7488 8.1372 47.9906 9.7044 47.9906C11.2708 47.9906 12.5452 46.7488 12.5452 45.2212C12.5452 44.3718 12.1516 43.5785 11.4652 43.0485C10.9596 42.6592 10.3508 42.4526 9.7044 42.4526M9.7044 49.8937C7.0604 49.8937 4.91 47.7978 4.91 45.2212C4.91 42.6461 7.0604 40.5502 9.7044 40.5502C10.7796 40.5502 11.8356 40.9074 12.6772 41.5571V41.5578C13.834 42.451 14.4972 43.7858 14.4972 45.2212C14.4972 47.7978 12.3468 49.8937 9.7044 49.8937" fill="#F24639"/>
<path fill-rule="evenodd" clip-rule="evenodd" d="M12.0705 43.2547C11.8585 43.2547 11.6441 43.1879 11.4649 43.0488C11.0425 42.7232 10.9713 42.1249 11.3057 41.7125L20.3865 30.5343C20.7209 30.1219 21.3361 30.0528 21.7585 30.3784C22.1809 30.7048 22.2521 31.3031 21.9177 31.7147L12.8369 42.8945C12.6441 43.131 12.3585 43.2547 12.0705 43.2547" fill="#F24639"/>
<path fill-rule="evenodd" clip-rule="evenodd" d="M23.5201 25.4373C21.9537 25.4373 20.6793 26.6799 20.6793 28.206C20.6793 29.0577 21.0729 29.8495 21.7585 30.3794C22.2641 30.7688 22.8729 30.9746 23.5201 30.9746C24.5513 30.9746 25.5049 30.4285 26.0065 29.5476C26.2377 29.1398 26.3609 28.676 26.3609 28.206C26.3609 26.6799 25.0865 25.4373 23.5201 25.4373M23.5201 32.8777C22.4449 32.8777 21.3881 32.5198 20.5465 31.8709C19.3905 30.9777 18.7273 29.6421 18.7273 28.206C18.7273 25.6301 20.8777 23.5342 23.5201 23.5342C26.1625 23.5342 28.3129 25.6301 28.3129 28.206C28.3129 28.9978 28.1049 29.7811 27.7129 30.4708C26.8673 31.9553 25.2609 32.8777 23.5201 32.8777" fill="#F24639"/>
<path fill-rule="evenodd" clip-rule="evenodd" d="M37.8915 36.9304C37.7315 36.9304 37.5683 36.892 37.4187 36.8106L26.3859 30.8417C25.9147 30.5859 25.7435 30.0068 26.0067 29.5476C26.2683 29.0883 26.8619 28.9224 27.3331 29.1774L38.3659 35.1471C38.8371 35.402 39.0083 35.9819 38.7459 36.4404C38.5675 36.7537 38.2347 36.9304 37.8915 36.9304" fill="#F24639"/>
<path fill-rule="evenodd" clip-rule="evenodd" d="M41.233 35.013C40.201 35.013 39.2482 35.5598 38.7458 36.4407C38.5146 36.847 38.3922 37.3101 38.3922 37.7816C38.3922 39.3076 39.6666 40.5502 41.233 40.5502C42.7994 40.5502 44.0738 39.3076 44.0738 37.7816C44.0738 36.8531 43.5994 35.9906 42.805 35.4753C42.3386 35.1727 41.7954 35.013 41.233 35.013M41.233 42.4526C38.5906 42.4526 36.4394 40.3567 36.4394 37.7816C36.4394 36.9883 36.6466 36.2049 37.0394 35.5168C37.8858 34.0322 39.4922 33.1099 41.233 33.1099C42.1826 33.1099 43.1002 33.3802 43.8874 33.8917C45.2258 34.7611 46.0258 36.2149 46.0258 37.7816C46.0258 40.3567 43.8754 42.4526 41.233 42.4526" fill="#F24639"/>
<path fill-rule="evenodd" clip-rule="evenodd" d="M43.3454 35.6347C43.1598 35.6347 42.9718 35.5833 42.8046 35.475C42.3566 35.1839 42.2342 34.5933 42.5342 34.1556L50.3294 22.7523C50.6278 22.3153 51.2334 22.1955 51.6838 22.4881C52.1318 22.78 52.2534 23.3698 51.9542 23.8075L44.1582 35.2108C43.9702 35.4865 43.6606 35.6347 43.3454 35.6347" fill="#F24639"/>
<path fill-rule="evenodd" clip-rule="evenodd" d="M53.2556 17.4127C51.6892 17.4127 50.4148 18.6553 50.4148 20.1821C50.4148 21.1099 50.8884 21.9723 51.6836 22.4884C52.15 22.7903 52.6932 22.9508 53.2556 22.9508C54.822 22.9508 56.0964 21.7081 56.0964 20.1821C56.0964 18.6553 54.822 17.4127 53.2556 17.4127M53.2556 24.8531C52.306 24.8531 51.3884 24.5828 50.6004 24.0713C49.262 23.2027 48.462 21.7488 48.462 20.1821C48.462 17.6063 50.6132 15.5096 53.2556 15.5096C55.898 15.5096 58.0484 17.6063 58.0484 20.1821C58.0484 22.758 55.898 24.8531 53.2556 24.8531" fill="#F24639"/>
</svg>
