<?xml version="1.0" encoding="UTF-8"?>
<svg id="_图层_2" data-name="图层 2" xmlns="http://www.w3.org/2000/svg" xmlns:xlink="http://www.w3.org/1999/xlink" viewBox="0 0 60 60">
  <defs>
    <style>
      .cls-1 {
        fill: #fff;
      }

      .cls-2 {
        fill: url(#_未命名的渐变_4);
      }
    </style>
    <linearGradient id="_未命名的渐变_4" data-name="未命名的渐变 4" x1="12.69" y1="47.31" x2="50.15" y2="9.85" gradientUnits="userSpaceOnUse">
      <stop offset="0" stop-color="#fc2774"/>
      <stop offset=".29" stop-color="#fc3078"/>
      <stop offset=".78" stop-color="#fe4984"/>
      <stop offset=".99" stop-color="#ff578b"/>
    </linearGradient>
  </defs>
  <g id="_图层_1-2" data-name="图层 1">
    <g>
      <rect class="cls-2" width="60" height="60" rx="12" ry="12"/>
      <g>
        <path class="cls-1" d="M48.58,50H11.42c-.35,0-.62-.28-.62-.63V10.63c0-.35,.28-.63,.62-.63s.62,.28,.62,.63V48.73H48.58c.35,0,.62,.28,.62,.63s-.28,.63-.62,.63Z"/>
        <g>
          <path class="cls-1" d="M17.01,43.26c-1.69,0-3.07-1.4-3.07-3.11s1.38-3.11,3.07-3.11c.69,0,1.36,.24,1.9,.67h0c.74,.6,1.16,1.49,1.16,2.44,0,1.72-1.38,3.11-3.07,3.11Zm0-4.96c-1,0-1.82,.83-1.82,1.85s.82,1.85,1.82,1.85,1.82-.83,1.82-1.85c0-.57-.25-1.1-.69-1.45-.32-.26-.71-.4-1.13-.4Z"/>
          <path class="cls-1" d="M18.53,38.84c-.14,0-.27-.04-.39-.14-.27-.22-.32-.62-.1-.89l5.81-7.45c.21-.27,.61-.32,.88-.1,.27,.22,.32,.62,.1,.89l-5.81,7.45c-.12,.16-.31,.24-.49,.24Z"/>
          <path class="cls-1" d="M25.85,31.92c-.69,0-1.36-.24-1.9-.67-.74-.6-1.16-1.49-1.16-2.44,0-1.72,1.38-3.11,3.07-3.11s3.07,1.4,3.07,3.11c0,.53-.13,1.05-.38,1.51-.54,.99-1.57,1.6-2.68,1.6Zm0-4.96c-1,0-1.82,.83-1.82,1.85,0,.57,.25,1.1,.69,1.45,.32,.26,.71,.4,1.13,.4,.66,0,1.27-.36,1.59-.95,.15-.27,.23-.58,.23-.89,0-1.02-.82-1.85-1.82-1.85Z"/>
          <path class="cls-1" d="M35.05,34.62c-.1,0-.21-.03-.3-.08l-7.06-3.98c-.3-.17-.41-.56-.24-.86,.17-.31,.55-.42,.85-.25l7.06,3.98c.3,.17,.41,.56,.24,.86-.11,.21-.33,.33-.55,.33Z"/>
          <path class="cls-1" d="M37.19,38.3c-1.69,0-3.07-1.4-3.07-3.11,0-.53,.13-1.05,.38-1.51,.54-.99,1.57-1.6,2.68-1.6,.61,0,1.2,.18,1.7,.52h0c.86,.58,1.37,1.55,1.37,2.59,0,1.72-1.38,3.11-3.07,3.11Zm0-4.96c-.66,0-1.27,.36-1.59,.95-.15,.27-.23,.58-.23,.89,0,1.02,.82,1.85,1.82,1.85s1.82-.83,1.82-1.85c0-.62-.3-1.19-.81-1.54-.3-.2-.65-.31-1.01-.31Z"/>
          <path class="cls-1" d="M38.54,33.76c-.12,0-.24-.03-.35-.11-.29-.19-.36-.59-.17-.88l4.99-7.6c.19-.29,.58-.37,.87-.18,.29,.19,.36,.59,.17,.88l-4.99,7.6c-.12,.18-.32,.28-.52,.28Z"/>
          <path class="cls-1" d="M44.88,26.57c-.61,0-1.2-.18-1.7-.52-.86-.58-1.37-1.55-1.37-2.59,0-1.72,1.38-3.11,3.07-3.11s3.07,1.4,3.07,3.11-1.38,3.11-3.07,3.11Zm0-4.96c-1,0-1.82,.83-1.82,1.85,0,.62,.3,1.19,.81,1.54,.3,.2,.65,.31,1.01,.31,1,0,1.82-.83,1.82-1.85s-.82-1.85-1.82-1.85Z"/>
        </g>
      </g>
    </g>
  </g>
</svg>