<svg xmlns="http://www.w3.org/2000/svg" viewBox="0 0 180 180"><defs><style>.cls-1{fill:#d9f4ff;}.cls-2{fill:#2198e8;}.cls-3{fill:#76ecff;}</style></defs><title>cun</title><g id="图层_2" data-name="图层 2"><g id="图层_1-2" data-name="图层 1"><circle class="cls-1" cx="90" cy="90" r="90"/><path class="cls-2" d="M43.26,68.32H134.8a0,0,0,0,1,0,0v43.45a16,16,0,0,1-16,16H56.26a13,13,0,0,1-13-13V68.32A0,0,0,0,1,43.26,68.32Z"/><path class="cls-2" d="M123.77,47.14c8.64,0,15.8,6.42,16.21,14.61l0,.75V115a17.86,17.86,0,0,1-17.08,17.84l-.78,0H56.23c-8.64,0-15.8-6.42-16.21-14.61l0-.75v-55C40,54,47.32,47.14,56.23,47.14a3.58,3.58,0,0,1,0,7.15c-4.87,0-8.77,3.44-9.07,7.67l0,.54v6.07H75.71a3.57,3.57,0,0,1,.42,7.12l-.42,0H47.14V117.5c0,4.3,3.7,7.91,8.49,8.2h66.51a10.71,10.71,0,0,0,10.7-10.08l0-.63V75.71H104.29a3.57,3.57,0,0,1-.42-7.11l.42,0h28.57V62.5c0-4.3-3.7-7.91-8.49-8.2H104.29a3.57,3.57,0,0,1-.42-7.12l.42,0Z"/><path class="cls-3" d="M78.06,47.14A15.51,15.51,0,0,1,93.55,61.9l0,.75V103l4.81-4.81a3.57,3.57,0,0,1,4.71-.3l.34.3a3.57,3.57,0,0,1,.3,4.71l-.3.34L92.62,114.05a3.57,3.57,0,0,1-4.71.3l-.34-.3L76.76,103.24a3.57,3.57,0,0,1,4.71-5.35l.34.3,4.62,4.61V62.65a8.38,8.38,0,0,0-7.8-8.35h-8a3.57,3.57,0,0,1-.42-7.12l.42,0Z"/></g></g></svg>