<?xml version="1.0" encoding="UTF-8"?>
<svg width="40px" height="40px" viewBox="0 0 40 40" version="1.1" xmlns="http://www.w3.org/2000/svg" xmlns:xlink="http://www.w3.org/1999/xlink">
    <title>kefu</title>
    <defs>
        <polygon id="path-1" points="0 0 40 0 40 40 0 40"></polygon>
    </defs>
    <g id="页面-1" stroke="none" stroke-width="1" fill="none" fill-rule="evenodd">
        <g id="5我的" transform="translate(-670.000000, -112.000000)">
            <g id="kefu" transform="translate(670.000000, 112.000000)">
                <mask id="mask-2" fill="white">
                    <use xlink:href="#path-1"></use>
                </mask>
                <g id="Clip-2"></g>
                <path d="M20.1866388,31.5571604 C20.3885058,31.5571604 20.593898,31.5451286 20.8006773,31.5213447 C22.7836894,31.2908926 24.4675708,29.9486967 25.0890645,28.0990922 C25.1359915,27.9607538 25.0682594,27.8125101 24.9314661,27.7517352 C24.7962331,27.6907364 24.6325666,27.7434528 24.5560502,27.8675768 C24.5488262,27.8793848 23.7609498,29.111671 20.6937046,29.5128076 C20.2345483,29.5724633 19.7877594,29.6037461 19.3642606,29.6037461 C17.2153281,29.602403 16.257717,28.8180937 16.2489327,28.8108746 C16.1408041,28.7177536 15.9757505,28.7153472 15.8649057,28.8060618 C15.7529629,28.8967764 15.7271877,29.0544218 15.8035308,29.1750761 C16.7390076,30.6436345 18.4176878,31.5571604 20.1866388,31.5571604 Z M36.6789908,13.1497589 C36.6519442,13.1497589 36.6273249,13.1545716 36.6016075,13.1545716 C34.8043962,5.62027732 27.9373363,0 19.704019,0 C11.2442732,0 4.21961485,5.93064333 2.66264435,13.7767586 C1.14878659,14.0405642 -0.00346751158,15.3290364 -0.00346751158,16.8872461 L-0.00346751158,23.1237225 C-0.00346751158,24.8716438 1.4440452,26.2890528 3.23131625,26.2890528 C4.23949525,26.2890528 5.1293743,25.8280368 5.72133632,25.1200038 C7.15168485,28.7833412 10.0635855,31.7370787 13.7487412,33.2955123 C13.7575256,33.2769328 13.8272804,33.1455337 13.9112519,33.0408286 C13.969275,32.9682457 14.0342908,32.9088139 14.0900599,32.9088139 C14.1478518,32.9088139 14.2009047,32.9291282 14.2462713,32.9601312 C13.3933791,32.3452192 10.3126106,29.1844778 9.64528801,24.7737101 C9.35251445,22.8323276 10.8541781,20.9265371 12.6030754,20.6113024 C15.4107195,20.1050689 18.2036845,19.5283791 21.0113286,19.0317151 C22.7961147,18.7164804 24.0158119,17.7684259 24.7616736,16.1899019 C24.9364362,15.8208876 25.1888132,15.0748004 25.3046281,13.9988164 C25.3353156,13.8388207 25.4707797,13.7159838 25.6443865,13.7159838 C25.7602013,13.7159838 25.8586209,13.773233 25.9238679,13.8556653 L26.001309,13.8091048 C27.1079075,15.3648521 29.3024378,18.8096014 29.6175768,22.4418798 C29.9794694,26.5946621 29.7776025,29.4389376 26.4950248,32.3487448 C26.4911528,32.3524383 26.4861827,32.3570272 26.4814438,32.3607767 C26.435846,32.4084005 26.4087416,32.4704625 26.4087416,32.5386803 C26.4087416,32.6281078 26.4579803,32.7046081 26.5292954,32.7511686 C26.5563998,32.7619133 26.5835042,32.7762956 26.6106086,32.7870403 C26.6326851,32.791853 26.6537213,32.7988483 26.6758556,32.7988483 C26.6981632,32.7988483 26.7178125,32.791853 26.7374617,32.7870403 C26.7842153,32.7632004 26.8284261,32.735667 26.8740239,32.7118272 C30.1937039,30.9409054 32.74036,27.9834744 33.9171756,24.4263531 C34.3935539,25.1116654 35.1394156,25.6048598 36.0058312,25.7768874 C34.6161103,31.8972983 28.978919,35.7279065 21.9948883,36.3093531 C21.5763597,35.3039933 20.5460464,34.5900284 19.3360582,34.5900284 C17.7557976,34.5900284 16.4744365,35.8020004 16.4744365,37.2956857 C16.4744365,38.7894271 17.7555664,40 19.3360582,40 C20.6101954,40 21.6772642,39.2073523 22.0477101,38.1182732 C30.13204,37.4819277 36.6126457,32.828788 37.9655532,25.5989278 C39.1606888,25.1151911 40,23.9797753 40,22.6543681 L40,16.3440216 C40,14.580319 38.5130154,13.1497589 36.6789908,13.1497589 Z M33.6966419,14.9624284 C31.5881636,9.43157859 26.1243479,5.48053987 19.696795,5.48053987 C13.2961154,5.48053987 7.85194881,9.39811324 5.72382137,14.8931473 C5.61794668,14.7676802 5.49375198,14.6603448 5.37186895,14.5516663 C6.57665585,7.855461 12.5281194,2.76419375 19.704019,2.76419375 C26.8455903,2.76419375 32.7785026,7.80537488 34.0228191,14.4550757 C33.899838,14.6150714 33.7865082,14.7820625 33.6966419,14.9624284 Z" id="Fill-1" fill="#FFFFFF" mask="url(#mask-2)"></path>
            </g>
        </g>
    </g>
</svg>