<?xml version="1.0" standalone="no"?><!DOCTYPE svg PUBLIC "-//W3C//DTD SVG 1.1//EN" "http://www.w3.org/Graphics/SVG/1.1/DTD/svg11.dtd"><svg t="1733311063762" class="icon" viewBox="0 0 1024 1024" version="1.1" xmlns="http://www.w3.org/2000/svg" p-id="4895" xmlns:xlink="http://www.w3.org/1999/xlink" width="48" height="48"><path d="M512 810.666667c-69.973333 0.853333-139.221333-14.250667-202.496-44.16a429.781333 429.781333 0 0 1-129.749333-97.365334A451.754667 451.754667 0 0 1 89.6 525.482667L85.333333 512l4.48-13.482667a454.869333 454.869333 0 0 1 89.984-143.658666 429.824 429.824 0 0 1 129.706667-97.365334A460.16 460.16 0 0 1 512 213.333333c69.973333-0.853333 139.221333 14.250667 202.496 44.16 49.066667 23.893333 93.056 56.96 129.749333 97.365334a448 448 0 0 1 90.154667 143.658666L938.666667 512l-4.48 13.482667A444.714667 444.714667 0 0 1 512 810.666667z m0-512a354.474667 354.474667 0 0 0-336.341333 213.333333A354.432 354.432 0 0 0 512 725.333333a354.517333 354.517333 0 0 0 336.341333-213.333333A354.133333 354.133333 0 0 0 512 298.666667z m0 341.333333a128.853333 128.853333 0 1 1 90.24-37.717333A126.976 126.976 0 0 1 512 640z" p-id="4896" fill="#cdcdcd"></path></svg>