<?xml version="1.0" encoding="UTF-8"?>
<svg width="30px" height="36px" viewBox="0 0 30 36" version="1.1" xmlns="http://www.w3.org/2000/svg" xmlns:xlink="http://www.w3.org/1999/xlink">
    <title>mima</title>
    <defs>
        <polygon id="path-1" points="0 0 30 0 30 36 0 36"></polygon>
    </defs>
    <g id="页面-1" stroke="none" stroke-width="1" fill="none" fill-rule="evenodd">
        <g id="登录-密码" transform="translate(-100.000000, -837.000000)">
            <g id="-" transform="translate(100.000000, 837.000000)">
                <g id="编组">
                    <mask id="mask-2" fill="white">
                        <use xlink:href="#path-1"></use>
                    </mask>
                    <g id="Clip-2"></g>
                    <path d="M14.998535,0 C21.2123456,0 26.2498169,5.00199623 26.2498169,11.1723469 L26.2498169,11.2865929 C26.2498169,11.9723113 25.6899459,12.5280241 24.9995931,12.5280241 C24.3092402,12.5280241 23.7493692,11.9723113 23.7493692,11.2865929 L23.7444371,10.8732513 C23.5830439,6.1330607 19.6235623,2.39693534 14.8478362,2.47854655 C10.0723055,2.56020625 6.24467313,6.4294893 6.24770078,11.1723469 L6.24770078,16.138023 L27.4997965,16.138023 C28.8806976,16.138023 30,17.2495454 30,18.6207398 L30,33.5172832 C30,34.8885261 28.8806976,36 27.4997965,36 L2.49727349,36 C1.11642125,36 -0.00292998317,34.8885261 -0.00292998317,33.5172832 L-0.00292998317,18.6207398 C-0.00292998317,17.2495454 1.11642125,16.138023 2.49727349,16.138023 L3.74749731,16.138023 L3.74749731,11.1723469 C3.74749731,5.13025628 8.58519252,0.182812992 14.6672027,0.00494613401 L14.998535,0 Z M2.49727349,33.5172832 L27.4997965,33.5172832 L27.4997965,18.6207398 L2.49727349,18.6207398 L2.49727349,33.5172832 Z" id="Fill-1" fill="#000000" mask="url(#mask-2)"></path>
                </g>
                <path d="M14.998535,21.1034566 C17.7602883,21.1034566 19.9991861,23.3266954 19.9991861,26.0691327 C19.9991861,28.8113276 17.7602883,31.0345664 14.998535,31.0345664 C12.2368305,31.0345664 9.99812807,28.8113276 9.99812807,26.0691327 C9.99812807,23.3266954 12.2368305,21.1034566 14.998535,21.1034566 Z M14.998535,23.5861735 C13.6176828,23.5861735 12.4983315,24.6978898 12.4983315,26.0691327 C12.4983315,27.4403272 13.6176828,28.5518495 14.998535,28.5518495 C16.3794361,28.5518495 17.4987385,27.4403272 17.4987385,26.0691327 C17.4987385,24.6978898 16.3794361,23.5861735 14.998535,23.5861735 Z" id="Fill-3" fill="#000000"></path>
            </g>
        </g>
    </g>
</svg>