<?xml version="1.0" encoding="UTF-8"?>
<svg width="40px" height="40.0002667px" viewBox="0 0 40 40.0002667" version="1.1" xmlns="http://www.w3.org/2000/svg" xmlns:xlink="http://www.w3.org/1999/xlink">
    <title>xiugaidenglumima </title>
    <defs>
        <polygon id="path-1" points="0 0 40 0 40 40.0002667 0 40.0002667"></polygon>
    </defs>
    <g id="页面-1" stroke="none" stroke-width="1" fill="none" fill-rule="evenodd">
        <g id="5我的" transform="translate(-40.000000, -1421.000000)">
            <g id="编组-20" transform="translate(0.000000, 888.000000)">
                <g id="xiugaidenglumima-" transform="translate(40.000000, 533.000000)">
                    <path d="M19.1711278,24.9402996 L19.1711278,26.9956466 C19.1711278,27.4383163 19.5451303,27.795652 20.0051334,27.795652 C20.4638031,27.795652 20.8404723,27.4383163 20.8404723,26.9956466 L20.8404723,24.9402996 C21.49581,24.6389643 21.951813,24.0036267 21.951813,23.2589551 C21.951813,22.2256148 21.0818072,21.3909426 20.0084667,21.3909426 C18.9324595,21.3909426 18.0624421,22.2256148 18.0624421,23.2589551 C18.0597871,24.0036267 18.5157901,24.6389643 19.1711278,24.9402996" id="Fill-1" fill="#D7060F"></path>
                    <path d="M28.5240568,29.8348656 L28.5207235,29.8348656 L11.4872766,29.8348656 L11.4872766,19.2767952 L28.5240568,19.2767952 L28.5240568,29.8348656 Z M29.0727272,17.1634478 L14.1886279,17.1634478 C14.2346282,17.045447 14.2626284,16.9227795 14.2626284,16.7901119 L14.2626284,15.6794379 C14.2626284,12.6394176 16.8373122,10.1654011 20.0033334,10.1654011 C23.1680211,10.1654011 25.742705,12.6394176 25.742705,15.6794379 C25.742705,16.2614417 26.2340416,16.7367782 26.8413789,16.7367782 C27.4480497,16.7367782 27.9393863,16.2634418 27.9393863,15.6794379 C27.9393863,11.4734098 24.3786959,8.05472036 20,8.05472036 C15.6213041,8.05472036 12.0612804,11.4760765 12.0612804,15.6794379 L12.0612804,16.7901119 C12.0612804,16.9227795 12.0886139,17.045447 12.1352809,17.1634478 L10.9326062,17.1634478 C10.0246002,17.1634478 9.28592857,17.854119 9.28592857,18.7027914 L9.28592857,30.405536 C9.28592857,31.254875 10.0246002,31.946213 10.9326062,31.946213 L29.0673938,31.946213 C29.9760665,31.946213 30.7141076,31.254875 30.7141076,30.405536 L30.7141076,18.7027914 C30.7200715,17.854119 29.9793999,17.1634478 29.0727272,17.1634478 L29.0727272,17.1634478 Z" id="Fill-3" fill="#4C4C4C"></path>
                    <g id="编组">
                        <mask id="mask-2" fill="white">
                            <use xlink:href="#path-1"></use>
                        </mask>
                        <g id="Clip-6"></g>
                        <path d="M19.9998667,0 C8.9544597,0 -0.000266668444,8.95405969 -0.000266668444,20.0001333 C-0.000266668444,31.046207 8.9544597,40.0002667 19.9998667,40.0002667 C31.0459403,40.0002667 40,31.046207 40,20.0001333 C40,8.95405969 31.0459403,0 19.9998667,0 M19.9998667,2.00001333 C29.9252662,2.00001333 37.9999867,10.0747338 37.9999867,20.0001333 C37.9999867,29.9255328 29.9252662,38.0002533 19.9998667,38.0002533 C10.0744672,38.0002533 1.99974666,29.9255328 1.99974666,20.0001333 C1.99974666,10.0747338 10.0744672,2.00001333 19.9998667,2.00001333" id="Fill-5" fill="#4C4C4C" mask="url(#mask-2)"></path>
                    </g>
                </g>
            </g>
        </g>
    </g>
</svg>