<?xml version="1.0" encoding="UTF-8"?>
<svg width="49px" height="46px" viewBox="0 0 49 46" version="1.1" xmlns="http://www.w3.org/2000/svg" xmlns:xlink="http://www.w3.org/1999/xlink">
    <title>编组</title>
    <defs>
        <polygon id="path-1" points="-1.74330869e-15 0 49 0 49 46 -1.74330869e-15 46"></polygon>
    </defs>
    <g id="页面-1" stroke="none" stroke-width="1" fill="none" fill-rule="evenodd">
        <g id="5我的" transform="translate(-486.000000, -637.000000)">
            <g id="编组-10备份" transform="translate(40.000000, 616.000000)">
                <g id="编组" transform="translate(446.000000, 21.000000)">
                    <g>
                        <mask id="mask-2" fill="white">
                            <use xlink:href="#path-1"></use>
                        </mask>
                        <g id="Clip-2"></g>
                        <path d="M14.2302354,42.5106143 C14.5275982,42.5106143 14.812203,42.6296417 15.0222216,42.8419071 C15.2322402,43.0541725 15.3500077,43.3418219 15.3500077,43.642366 L15.3500077,44.8683476 C15.3500077,45.1688916 15.2322402,45.456541 15.0222216,45.6688064 C14.812203,45.8810718 14.5275982,46.0000992 14.2302354,46.0000992 L11.6167791,46.0000992 L11.6167791,45.9782775 L0.902883901,45.9812532 C0.50443731,45.9881965 0.148190727,45.729312 0.0294418663,45.3444569 L-1.74330869e-15,45.1143374 L-1.74330869e-15,8.67411738 C-1.74330869e-15,8.27438389 0.27969773,7.93813166 0.664404784,7.83695842 L0.906809483,7.80620969 L9.07103902,7.80620969 L9.07103902,0.863940107 C9.07103902,0.467182308 9.35466233,0.12795439 9.7354438,0.0297568349 L9.9778485,0 L48.0893631,0 C48.5074376,0 48.8617214,0.267811514 48.9667307,0.633820584 L49.0000981,0.863940107 L49.0000981,37.3041601 C48.9932284,37.7048855 48.7184376,38.0500648 48.3317678,38.1413191 L48.0893631,38.1720678 L43.161776,38.1720678 C42.8644132,38.1720678 42.5798085,38.0520486 42.3697898,37.8397832 C42.1597712,37.6275177 42.0420037,37.3398683 42.0420037,37.0393243 L42.0420037,35.8133427 C42.0420037,35.5137906 42.1597712,35.2251493 42.3697898,35.0128838 C42.5798085,34.8006184 42.8644132,34.6815911 43.161776,34.6815911 L45.3640276,34.6815911 L45.3640276,3.46766316 L12.6992583,3.46766316 L12.6992583,34.6776235 L14.2302354,34.6815911 C14.5275982,34.6815911 14.812203,34.8006184 15.0222216,35.0128838 C15.2322402,35.2251493 15.3500077,35.5137906 15.3500077,35.8133427 L15.3500077,37.0393243 C15.3500077,37.3398683 15.2322402,37.6275177 15.0222216,37.8397832 C14.812203,38.0520486 14.5275982,38.1720678 14.2302354,38.1720678 L9.9778485,38.1720678 C9.58038331,38.1790111 9.22511812,37.9211185 9.10440647,37.5382472 L9.07103902,37.3041601 L9.07103902,11.2768485 L3.62821933,11.2768485 L3.62821933,42.5106143 L14.2302354,42.5106143 Z" id="Fill-1" fill="#FFFFFF" mask="url(#mask-2)"></path>
                    </g>
                    <polygon id="Fill-3" fill="#FFFFFF" points="29.4835756 28.0748794 32.1225483 30.7420837 18.9227782 44.0840566 16.2828242 41.4168523"></polygon>
                    <polygon id="Fill-5" fill="#FFFFFF" points="26.8144742 30.7424805 29.4534468 28.0752762 42.6541983 41.4162572 40.0142443 44.0834615"></polygon>
                </g>
            </g>
        </g>
    </g>
</svg>