<?xml version="1.0" encoding="UTF-8"?>
<svg width="40px" height="39.9999333px" viewBox="0 0 40 39.9999333" version="1.1" xmlns="http://www.w3.org/2000/svg" xmlns:xlink="http://www.w3.org/1999/xlink">
    <title>zaixianfankui</title>
    <defs>
        <polygon id="path-1" points="0 0 40 0 40 39.9999333 0 39.9999333"></polygon>
    </defs>
    <g id="页面-1" stroke="none" stroke-width="1" fill="none" fill-rule="evenodd">
        <g id="5我的" transform="translate(-40.000000, -1617.000000)">
            <g id="编组-20" transform="translate(0.000000, 888.000000)">
                <g id="zaixianfankui" transform="translate(40.000000, 729.000000)">
                    <g id="编组">
                        <mask id="mask-2" fill="white">
                            <use xlink:href="#path-1"></use>
                        </mask>
                        <g id="Clip-2"></g>
                        <path d="M20.0000333,-0.000133333556 C8.95468159,-0.000133333556 0,8.95454826 0,19.9999 C0,31.0459184 8.95468159,39.9999333 20.0000333,39.9999333 C31.0453851,39.9999333 40.0000667,31.0459184 40.0000667,19.9999 C40.0000667,8.95454826 31.0453851,-0.000133333556 20.0000333,-0.000133333556 M20.0000333,1.99987 C29.9253832,1.99987 38.0000633,10.0745501 38.0000633,19.9999 C38.0000633,29.9252499 29.9253832,37.99993 20.0000333,37.99993 C10.0746835,37.99993 2.00000333,29.9252499 2.00000333,19.9999 C2.00000333,10.0745501 10.0746835,1.99987 20.0000333,1.99987" id="Fill-1" fill="#4C4C4C" mask="url(#mask-2)"></path>
                    </g>
                    <path d="M25.4017757,16.5870943 L18.0970968,23.8924398 L13.4397557,19.2350987 L20.7444346,11.9297532 C21.403769,11.2697521 22.4771041,11.2697521 23.1371052,11.9297532 L25.4017757,14.1950903 C26.0611101,14.8537581 26.0611101,15.9277599 25.4017757,16.5870943 L25.4017757,16.5870943 Z M12.582421,24.7491079 L12.9050882,21.1784353 L16.1537603,24.4271074 L12.582421,24.7491079 Z M26.6404444,12.9557549 L24.375774,10.6904178 C23.7251062,10.0404167 22.8597714,9.68241614 21.9411032,9.68241614 C21.0211017,9.68241614 20.1557669,10.0404167 19.5057658,10.6904178 L11.3564189,18.8397647 L10.6490844,26.6831111 L18.4924308,25.9757766 L26.6404444,17.825763 C27.2911122,17.175762 27.6497794,16.3104272 27.6497794,15.3910923 C27.6497794,14.4710908 27.2911122,13.605756 26.6404444,12.9557549 L26.6404444,12.9557549 Z" id="Fill-3" fill="#4C4C4C"></path>
                    <path d="M29.1191819,28.5656476 L10.8811515,28.5656476 C10.3971507,28.5656476 10.0044833,28.9583149 10.0044833,29.4416491 C10.0044833,29.9256499 10.3971507,30.3176505 10.8811515,30.3176505 L29.1191819,30.3176505 C29.6031827,30.3176505 29.9945167,29.9256499 29.9945167,29.4416491 C29.9945167,28.9583149 29.6031827,28.5656476 29.1191819,28.5656476" id="Fill-5" fill="#D7060F"></path>
                </g>
            </g>
        </g>
    </g>
</svg>