<?xml version="1.0" encoding="UTF-8"?>
<svg width="40px" height="40px" viewBox="0 0 40 40" version="1.1" xmlns="http://www.w3.org/2000/svg" xmlns:xlink="http://www.w3.org/1999/xlink">
    <title>zijinjilu</title>
    <g id="页面-1" stroke="none" stroke-width="1" fill="none" fill-rule="evenodd">
        <g id="5我的" transform="translate(-40.000000, -1225.000000)">
            <g id="编组-20" transform="translate(0.000000, 888.000000)">
                <g id="zijinjilu" transform="translate(40.000000, 337.000000)">
                    <path d="M14.7676,16.4538 L14.6809333,16.4538 L14.7249333,16.4978 L14.7676,16.4538 Z M14.5942667,16.3671333 L14.5942667,16.4538 L14.6809333,16.4538 L14.5942667,16.3671333 Z M27.7409333,13.5131333 L19.7842667,21.5564667 L14.7249333,16.4978 L9.7516,21.5564667 L9.7516,26.4864667 L14.7676,21.1244667 L19.6109333,25.9678 L19.7842667,26.3138 L30.2489333,15.9351333 L27.7409333,13.5131333 Z" id="Fill-1" fill="#4C4C4C"></path>
                    <g id="编组">
                        <path d="M20,0 C8.95466667,0 0,8.954 0,20 C0,31.046 8.95466667,40 20,40 C31.0453333,40 40,31.046 40,20 C40,8.954 31.0453333,0 20,0 M20,2 C29.9253333,2 38,10.0746667 38,20 C38,29.9253333 29.9253333,38 20,38 C10.0746667,38 2,29.9253333 2,20 C2,10.0746667 10.0746667,2 20,2" id="Fill-2" fill="#4C4C4C"></path>
                        <path d="M27.1842667,25.2568667 C27.1842667,27.3002 25.5282667,28.9568667 23.4842667,28.9568667 C21.4409333,28.9568667 19.7842667,27.3002 19.7842667,25.2568667 C19.7842667,23.2135333 21.4409333,21.5568667 23.4842667,21.5568667 C25.5282667,21.5568667 27.1842667,23.2135333 27.1842667,25.2568667" id="Fill-4" fill="#D7060F"></path>
                    </g>
                </g>
            </g>
        </g>
    </g>
</svg>