<?xml version="1.0" encoding="UTF-8"?>
<svg width="40px" height="40.0001333px" viewBox="0 0 40 40.0001333" version="1.1" xmlns="http://www.w3.org/2000/svg" xmlns:xlink="http://www.w3.org/1999/xlink">
    <title>yinhangka </title>
    <defs>
        <polygon id="path-1" points="0 0 40 0 40 40.0001333 0 40.0001333"></polygon>
    </defs>
    <g id="页面-1" stroke="none" stroke-width="1" fill="none" fill-rule="evenodd">
        <g id="5我的" transform="translate(-40.000000, -1029.000000)">
            <g id="编组-20" transform="translate(0.000000, 888.000000)">
                <g id="yinhangka-" transform="translate(40.000000, 141.000000)">
                    <g id="编组">
                        <mask id="mask-2" fill="white">
                            <use xlink:href="#path-1"></use>
                        </mask>
                        <g id="Clip-2"></g>
                        <path d="M20.0001333,-0.000133334222 C8.95405969,-0.000133334222 0,8.95459303 0,20 C0,31.0460736 8.95405969,40.0001333 20.0001333,40.0001333 C31.0455403,40.0001333 40.0002667,31.0460736 40.0002667,20 C40.0002667,8.95459303 31.0455403,-0.000133334222 20.0001333,-0.000133334222 M20.0001333,1.99988 C29.9255328,1.99988 38.0002533,10.0746005 38.0002533,20 C38.0002533,29.9253995 29.9255328,38.00012 20.0001333,38.00012 C10.0740672,38.00012 2.00001333,29.9253995 2.00001333,20 C2.00001333,10.0746005 10.0740672,1.99988 20.0001333,1.99988" id="Fill-1" fill="#4C4C4C" mask="url(#mask-2)"></path>
                    </g>
                    <path d="M22.3236822,25.1676345 C22.3236822,24.6329642 22.7703518,24.1989613 23.3196888,24.1989613 L27.9717198,24.1989613 C28.5223901,24.1989613 28.9690598,24.6329642 28.9690598,25.1676345 C28.9690598,25.7029714 28.5223901,26.1363076 27.9717198,26.1363076 L23.3196888,26.1363076 C22.7703518,26.1363076 22.3236822,25.7029714 22.3236822,25.1676345 L22.3236822,25.1676345 Z M17.3423156,24.1989613 C16.7929786,24.1989613 16.346309,24.6329642 16.346309,25.1676345 C16.346309,25.7029714 16.7929786,26.1363076 17.3423156,26.1363076 L19.3369956,26.1363076 C19.8863326,26.1363076 20.3330022,25.7029714 20.3330022,25.1676345 C20.3330022,24.6329642 19.8863326,24.1989613 19.3369956,24.1989613 L17.3423156,24.1989613 Z" id="Fill-3" fill="#D7060F"></path>
                    <path d="M7.72918486,17.0933806 L32.2706818,17.0933806 C32.2906819,17.9267195 32.2906819,18.8853926 32.2906819,19.9994 C32.2906819,22.3094154 32.2886819,23.9527597 32.1233475,25.2081014 C31.9620131,26.4387763 31.6573444,27.1747812 31.1426743,27.7347849 C30.9600064,27.9367862 30.754005,28.1227875 30.5326702,28.2927886 C29.9073327,28.7734585 29.0779939,29.0601271 27.7066514,29.2114614 C26.3199755,29.3641291 24.5119634,29.3667958 21.9926133,29.3667958 L18.0065867,29.3667958 C15.4852366,29.3667958 13.6798912,29.3627958 12.2932153,29.2114614 C10.9218728,29.0601271 10.092534,28.7734585 9.46652978,28.2927886 C9.24652831,28.1247875 9.04186028,27.9381196 8.85519237,27.7347849 C8.34252228,27.1734478 8.03718691,26.4387763 7.87585251,25.2081014 C7.71118474,23.9514263 7.70918473,22.3094154 7.70918473,19.9994 C7.70918473,18.8853926 7.70918473,17.9267195 7.72918486,17.0933806 M9.46652978,11.706678 C10.092534,11.2246748 10.9218728,10.9393396 12.2932153,10.7886719 C13.6798912,10.6346709 15.4852366,10.6340042 18.0065867,10.6340042 L21.9926133,10.6340042 C24.5119634,10.6340042 26.3173088,10.6346709 27.7066514,10.7886719 C29.0779939,10.9393396 29.9073327,11.2246748 30.5326702,11.706678 C30.754005,11.8753458 30.9600064,12.0633471 31.1426743,12.2646818 C31.6573444,12.8266855 31.9600131,13.5593571 32.1233475,14.7913653 C32.1386809,14.9080327 32.1533477,15.0300335 32.1653478,15.1560344 L7.8345189,15.1560344 C7.84651898,15.0300335 7.8598524,14.9100327 7.87585251,14.7913653 C8.03718691,13.5593571 8.34252228,12.8246855 8.85519237,12.2646818 C9.04052694,12.0633471 9.24519497,11.8773458 9.46652978,11.706678 M22.0566137,8.69732465 L17.943253,8.69732465 C15.4992367,8.69732465 13.5798905,8.69732465 12.0678805,8.86199241 C10.5252035,9.03332689 9.27119514,9.38532924 8.23118821,10.1860012 C7.9198528,10.4240028 7.63118421,10.6900046 7.36784912,10.9746732 C6.48317655,11.9413463 6.08650724,13.1093541 5.89983933,14.5453636 C5.71583811,15.9407063 5.71583811,17.7040514 5.71583811,19.9320662 L5.71583811,20.0674004 C5.71583811,22.296082 5.71583811,24.0594271 5.89983933,25.4547697 C6.08650724,26.8881126 6.48317655,28.0587871 7.36784912,29.0241268 C7.63118421,29.3101287 7.9198528,29.5754638 8.23118821,29.8147988 C9.27119514,30.6121374 10.5232035,30.9674731 12.0678805,31.1374742 C13.5825572,31.302142 15.4992367,31.302142 17.943253,31.302142 L22.0566137,31.302142 C24.4992967,31.302142 26.4173094,31.302142 27.9299862,31.1374742 C29.4746632,30.9674731 30.7280049,30.6141374 31.7686785,29.8147988 C32.0793472,29.5754638 32.3680158,29.3101287 32.6320175,29.0241268 C33.5160234,28.0587871 33.9106927,26.8901126 34.100694,25.4547697 C34.2840286,24.0594271 34.2840286,22.296082 34.2840286,20.0674004 L34.2840286,19.9320662 C34.2840286,17.7040514 34.2840286,15.9407063 34.100694,14.5453636 C33.9106927,13.1113541 33.5160234,11.9413463 32.6320175,10.9746732 C32.3680158,10.6880046 32.0786805,10.4240028 31.7686785,10.1860012 C30.7280049,9.38532924 29.4766632,9.03332689 27.9319862,8.86199241 C26.4173094,8.69732465 24.4992967,8.69732465 22.0566137,8.69732465" id="Fill-5" fill="#4C4C4C"></path>
                </g>
            </g>
        </g>
    </g>
</svg>