<?xml version="1.0" encoding="UTF-8"?>
<svg width="49px" height="46px" viewBox="0 0 49 46" version="1.1" xmlns="http://www.w3.org/2000/svg" xmlns:xlink="http://www.w3.org/1999/xlink">
    <title>编组</title>
    <defs>
        <polygon id="path-1" points="-1.74331218e-15 0 49 0 49 46 -1.74331218e-15 46"></polygon>
    </defs>
    <g id="页面-1" stroke="none" stroke-width="1" fill="none" fill-rule="evenodd">
        <g id="5我的" transform="translate(-131.000000, -637.000000)">
            <g id="编组-10备份" transform="translate(40.000000, 616.000000)">
                <g id="编组" transform="translate(91.000000, 21.000000)">
                    <g>
                        <mask id="mask-2" fill="white">
                            <use xlink:href="#path-1"></use>
                        </mask>
                        <g id="Clip-2"></g>
                        <path d="M14.2302639,42.5105152 C14.5276273,42.5105152 14.8122326,42.6295425 15.0222517,42.8418079 C15.2322708,43.0540733 15.3500385,43.3417227 15.3500385,43.6422668 L15.3500385,44.8682484 C15.3500385,45.1687924 15.2322708,45.4564418 15.0222517,45.6687072 C14.8122326,45.8809727 14.5276273,46 14.2302639,46 L11.6168023,46 L11.6168023,45.9781783 L0.902885709,45.981154 C0.50443832,45.9880973 0.148191024,45.7292128 0.0294419253,45.3443577 L-1.74331218e-15,45.1142382 L-1.74331218e-15,8.67401819 C-1.74331218e-15,8.2742847 0.27969829,7.93803247 0.664406114,7.83586734 L0.906811299,7.8061105 L9.07105719,7.8061105 L9.07105719,0.863840917 C9.07105719,0.467083119 9.35468107,0.127855201 9.7354633,0.0296576455 L9.97786848,-9.91894497e-05 L48.0894594,-9.91894497e-05 C48.5075347,-9.91894497e-05 48.8618192,0.267712325 48.9668288,0.633721394 L49.0001963,0.863840917 L49.0001963,37.3040609 C48.9933265,37.7047863 48.7185352,38.0499656 48.3318646,38.1412199 L48.0894594,38.1719686 L43.1618625,38.1719686 C42.864499,38.1719686 42.5798938,38.0519494 42.3698747,37.839684 C42.1598556,37.6274186 42.0420879,37.3397691 42.0420879,37.0392251 L42.0420879,35.8132435 C42.0420879,35.5136914 42.1598556,35.2250501 42.3698747,35.0127847 C42.5798938,34.8005192 42.864499,34.6814919 43.1618625,34.6814919 L45.3641185,34.6814919 L45.3641185,3.46756397 L12.6992838,3.46756397 L12.6992838,34.6775243 L14.2302639,34.6814919 C14.5276273,34.6814919 14.8122326,34.8005192 15.0222517,35.0127847 C15.2322708,35.2250501 15.3500385,35.5136914 15.3500385,35.8132435 L15.3500385,37.0392251 C15.3500385,37.3397691 15.2322708,37.6274186 15.0222517,37.839684 C14.8122326,38.0519494 14.5276273,38.1719686 14.2302639,38.1719686 L9.97786848,38.1719686 C9.58040249,38.1789119 9.22513659,37.9210193 9.1044247,37.538148 L9.07105719,37.3040609 L9.07105719,11.2767493 L3.62822659,11.2767493 L3.62822659,42.5105152 L14.2302639,42.5105152 Z" id="Fill-1" fill="#EE1515" mask="url(#mask-2)"></path>
                    </g>
                    <polygon id="Fill-3" fill="#EE1515" points="29.4836347 44.0840566 32.1226126 41.4168523 18.9228161 28.0748794 16.2828568 30.7420837"></polygon>
                    <polygon id="Fill-5" fill="#EE1515" points="26.8140372 41.4164555 29.4530151 44.0836598 42.653793 30.7426788 40.0138337 28.0754745"></polygon>
                </g>
            </g>
        </g>
    </g>
</svg>