<?xml version="1.0" encoding="UTF-8"?>
<svg width="40px" height="40.0001333px" viewBox="0 0 40 40.0001333" version="1.1" xmlns="http://www.w3.org/2000/svg" xmlns:xlink="http://www.w3.org/1999/xlink">
    <title>shiming </title>
    <defs>
        <polygon id="path-1" points="0 0 40 0 40 40.0001333 0 40.0001333"></polygon>
    </defs>
    <g id="页面-1" stroke="none" stroke-width="1" fill="none" fill-rule="evenodd">
        <g id="5我的" transform="translate(-40.000000, -931.000000)">
            <g id="编组-20" transform="translate(0.000000, 888.000000)">
                <g id="shiming-" transform="translate(40.000000, 43.000000)">
                    <path d="M28.4448563,30.9232062 C28.1855212,30.9232062 27.9368529,30.8232055 27.7535184,30.6452043 L25.0261668,27.99252 C24.6441643,27.6218508 24.6441643,27.0198468 25.0261668,26.648511 C25.4075027,26.2771752 26.0268402,26.2771752 26.4081761,26.648511 L28.4448563,28.6291909 L34.0555604,23.1738212 C34.4375629,22.8024853 35.0562337,22.8024853 35.4382363,23.1738212 C35.8202388,23.5444903 35.8202388,24.1464943 35.4382363,24.5178301 L29.1361942,30.6452043 C28.9528597,30.8232055 28.7041914,30.9232062 28.4448563,30.9232062" id="Fill-1" fill="#D7060F"></path>
                    <path d="M22.8751525,29.6865312 L9.7303982,29.6865312 C9.4743965,29.6865312 9.24839499,29.6251975 9.12439416,29.5238635 C9.08639391,29.49253 9.03439356,29.4505297 9.03439356,29.2871952 L9.03439356,28.6811912 C9.03439356,28.2471883 9.44972966,27.7638518 9.9797332,27.5778505 L10.1110674,27.5265168 L15.3004353,25.2785019 C16.1711078,25.0091667 17.2817819,24.5631638 17.8724525,23.9204928 C18.803792,22.9071527 18.7411249,21.0924739 18.1504543,19.9917999 C18.0504537,19.805132 17.9111194,19.5977973 17.699118,19.2837952 C17.2991153,18.6871246 16.6931113,17.7857852 16.1844412,16.7644451 C15.4991033,15.3851026 15.355769,14.4957633 15.355769,13.99376 C15.355769,12.1984147 15.9244395,10.5250702 16.9597797,9.2850619 C17.899786,8.15705438 19.1144608,7.53638358 20.3804692,7.53638358 C21.6464776,7.53638358 22.8618191,8.15705438 23.8018253,9.2850619 C24.8364989,10.5250702 25.4071694,12.1984147 25.4071694,13.99376 C25.4071694,15.5811039 24.0198268,17.6171174 23.1911546,18.8331256 C22.6864846,19.5751305 22.3804825,20.0231335 22.2311482,20.5098034 C21.747145,22.0858139 21.9158128,23.2804885 22.7324849,24.0611604 C22.99782,24.3138288 23.3418223,24.5411636 23.6858246,24.7324982 C24.055827,24.1971613 24.5124967,23.7231582 25.0358336,23.3298222 C24.6951646,23.1711545 24.2898286,22.955153 24.0658271,22.7411516 C23.7864919,22.4744832 23.806492,21.8438123 24.0544937,21.0398069 C24.301162,20.2351349 27.3091821,16.9644464 27.3091821,13.99376 C27.3091821,9.40572937 24.2078281,5.68637124 20.3811359,5.68637124 C16.5544437,5.68637124 13.452423,9.40572937 13.452423,13.99376 C13.452423,16.8391123 16.1331076,20.2311349 16.4637764,20.8484723 C16.7944453,21.4644764 16.7137781,22.4044827 16.452443,22.6884846 C16.0604404,23.1164874 14.6270975,23.5444903 14.6270975,23.5444903 L9.3357289,25.8371722 C8.10038734,26.2691751 7.13171421,27.402516 7.13171421,28.6811912 L7.13171421,29.2871952 C7.13171421,30.6825379 8.29838866,31.5365436 9.7303982,31.5365436 L23.7938253,31.5365436 C23.3851559,30.9832066 23.0711538,30.3585357 22.8751525,29.6865312" id="Fill-3" fill="#4C4C4C"></path>
                    <g id="编组">
                        <mask id="mask-2" fill="white">
                            <use xlink:href="#path-1"></use>
                        </mask>
                        <g id="Clip-6"></g>
                        <path d="M20.0001333,-0.000133334222 C8.95405969,-0.000133334222 0,8.95459303 0,20 C0,31.0460736 8.95405969,40.0001333 20.0001333,40.0001333 C31.0455403,40.0001333 40.0002667,31.0460736 40.0002667,20 C40.0002667,8.95459303 31.0455403,-0.000133334222 20.0001333,-0.000133334222 M20.0001333,1.99988 C29.9255328,1.99988 38.0002533,10.0746005 38.0002533,20 C38.0002533,29.9253995 29.9255328,38.00012 20.0001333,38.00012 C10.0747338,38.00012 2.00001333,29.9253995 2.00001333,20 C2.00001333,10.0746005 10.0747338,1.99988 20.0001333,1.99988" id="Fill-5" fill="#4C4C4C" mask="url(#mask-2)"></path>
                    </g>
                </g>
            </g>
        </g>
    </g>
</svg>