<svg width="30" height="36" viewBox="0 0 30 36" fill="none" xmlns="http://www.w3.org/2000/svg">
<path fill-rule="evenodd" clip-rule="evenodd" d="M4.61528 0H25.3845C27.923 0 30 2.02491 30 4.49992V31.5001C30 33.9751 27.923 36 25.3845 36H4.61528C2.07683 36 0 33.9751 0 31.5001V4.49992C0 2.02491 2.07683 0 4.61528 0ZM4.61528 2.24996C3.23076 2.24996 2.30764 3.15 2.30764 4.49992V31.5001C2.30764 32.85 3.23076 33.75 4.61528 33.75H25.3845C26.7692 33.75 27.6921 32.85 27.6921 31.5001V4.49992C27.6921 3.15 26.7692 2.24996 25.3845 2.24996H4.61528ZM10.3845 4.49992H19.6153C20.3076 4.49992 20.7692 4.95005 20.7692 5.62501C20.7692 6.29996 20.3076 6.7501 19.6153 6.7501H10.3845C9.69223 6.7501 9.23079 6.29996 9.23079 5.62501C9.23079 4.95005 9.69223 4.49992 10.3845 4.49992ZM15 31.5001C13.6153 31.5001 12.6924 30.6 12.6924 29.2501C12.6924 27.9 13.6153 26.9999 15 26.9999C16.3846 26.9999 17.3076 27.9 17.3076 29.2501C17.3076 30.6 16.3846 31.5001 15 31.5001ZM2.30764 24.75H27.6921V22.5H2.30764V24.75Z" fill="black"/>
</svg>
