<?xml version="1.0" encoding="UTF-8"?>
<svg width="40px" height="46px" viewBox="0 0 40 46" version="1.1" xmlns="http://www.w3.org/2000/svg" xmlns:xlink="http://www.w3.org/1999/xlink">
    <title>mima</title>
    <g id="页面-1" stroke="none" stroke-width="1" fill="none" fill-rule="evenodd" opacity="0.3">
        <g id="注册页" transform="translate(-70.000000, -740.000000)" fill="#000000">
            <g id="编组备份-2" transform="translate(40.000000, 713.000000)">
                <g id="编组-6" transform="translate(30.000000, 27.000000)">
                    <path d="M36.4518481,19.7808081 C36.0433376,19.7808081 33.7460193,19.8053132 33.3119574,19.8053132 L33.3119574,12.8525615 C33.3119574,5.14098873 28.1301375,0.0245050907 20.0382024,0 C11.9462673,0 6.66242888,5.3859201 6.66242888,12.8525615 L6.66242888,19.7317381 C6.38148834,19.7317381 3.44613333,19.7562432 3.19074417,19.7562432 C1.25077122,19.7562432 0,21.3475799 0,23.0612627 L0,42.6217043 C0,44.5557536 1.07209852,46 3.13964141,46 L36.5538667,46 C38.1620456,46 40,44.6048236 40,42.0830704 L40,23.5018164 C40,21.5922722 39.3363496,19.7808081 36.4518481,19.7808081 Z M24.4544157,37.3338046 C24.4544157,39.7574776 22.46334,41.7158527 20.012651,41.7158527 C17.5622114,41.7158527 15.5710733,39.7574776 15.5710733,37.3338046 L15.5710733,37.2602893 C15.5710733,35.6446268 16.4644992,34.2247062 17.7919868,33.4656461 L17.7919868,25.3868556 C17.7919868,24.2363117 18.7363285,24.1140253 19.9106325,24.1140253 C21.0847496,24.1140253 22.2335645,24.2363117 22.2335645,25.3868556 L22.2335645,33.4656461 C23.5609899,34.2247062 24.4544157,35.6446268 24.4544157,37.2602893 L24.4544157,37.3338046 Z M28.9215448,19.7317381 L11.129558,19.7317381 L11.129558,10.9184524 C11.129558,6.68331523 16.056051,4.38222744 19.7575112,4.38222744 L20.5742828,4.38222744 C24.275743,4.38222744 28.9215448,6.5119589 28.9215448,10.9184524 L28.9215448,19.7317381 Z" id="mima"></path>
                </g>
            </g>
        </g>
    </g>
</svg>