<?xml version="1.0" encoding="UTF-8"?>
<svg width="40px" height="44px" viewBox="0 0 40 44" version="1.1" xmlns="http://www.w3.org/2000/svg" xmlns:xlink="http://www.w3.org/1999/xlink">
    <title>shoujihao</title>
    <defs>
        <polygon id="path-1" points="0 0 40 0 40 44 0 44"></polygon>
    </defs>
    <g id="页面-1" stroke="none" stroke-width="1" fill="none" fill-rule="evenodd" opacity="0.3">
        <g id="注册页" transform="translate(-70.000000, -611.000000)">
            <g id="编组" transform="translate(40.000000, 583.000000)">
                <g id="shoujihao" transform="translate(30.000000, 28.000000)">
                    <mask id="mask-2" fill="white">
                        <use xlink:href="#path-1"></use>
                    </mask>
                    <g id="Clip-2"></g>
                    <path d="M28.450049,23.0562597 C31.2436208,20.6730933 33.0298095,17.0573434 33.0298095,13.0022551 C33.0298095,5.81753119 27.4215671,0 20.5078868,0 C13.5881443,0 7.98013966,5.82039035 7.98013966,13.0022551 C7.98013966,16.6063968 9.39517142,19.8736152 11.6805348,22.2248162 C11.9633153,22.4855143 19.9298449,29.5706251 28.450049,23.0562597 Z M36.8485944,32.0505454 L30.0414768,26.0835946 C27.4853978,28.0979866 20.2462643,32.3460681 10.2348952,25.9312586 C7.22237348,28.1623177 -0.829382514,34.5683782 0.0653759058,38.8897114 C0.0653759058,38.8897114 0.223704463,43.3955747 8.73790584,43.6151581 C8.73790584,43.6151581 34.1130882,45.4186586 38.333519,41.2172385 C38.3274568,41.2143794 42.9374686,38.3569928 36.8485944,32.0503167 L36.8485944,32.0505454 Z" id="Fill-1" fill="#000000" mask="url(#mask-2)"></path>
                </g>
            </g>
        </g>
    </g>
</svg>