<svg xmlns="http://www.w3.org/2000/svg" viewBox="0 0 48 60"><defs><style>.cls-1{fill:#d7070f;}.cls-2{fill:#e57f89;}</style></defs><title>资源 4</title><g id="图层_2" data-name="图层 2"><g id="图层_1-2" data-name="图层 1"><path class="cls-1" d="M38.92,60H1.75A1.67,1.67,0,0,1,0,58.22V1.78A1.67,1.67,0,0,1,1.75,0h44.5A1.67,1.67,0,0,1,48,1.78V49.32a1.92,1.92,0,0,1-.35,1.07l-7.5,8.9a1.53,1.53,0,0,1-1.23.71ZM5.24,56.44H37.18a1.57,1.57,0,0,0,1.39-.71l5.59-6.59a1.33,1.33,0,0,0,.35-1.07V5.34a1.67,1.67,0,0,0-1.75-1.78H5.24A1.67,1.67,0,0,0,3.49,5.34V54.66a1.67,1.67,0,0,0,1.75,1.78Z"/><rect class="cls-2" x="5.76" y="8.72" width="18.15" height="42.2"/><path class="cls-1" d="M36.31,17.63h-25A1.67,1.67,0,0,1,9.6,15.85a1.67,1.67,0,0,1,1.75-1.78h25a1.66,1.66,0,0,1,1.74,1.78,1.77,1.77,0,0,1-1.74,1.78Zm0,12.64h-25a1.78,1.78,0,0,1,0-3.56h25a1.66,1.66,0,0,1,1.74,1.78,1.77,1.77,0,0,1-1.74,1.78Zm0,12.46h-25a1.78,1.78,0,0,1,0-3.56h25a1.78,1.78,0,0,1,0,3.56Z"/></g></g></svg>