<?xml version="1.0" encoding="UTF-8"?>
<svg width="30px" height="30px" viewBox="0 0 30 30" version="1.1" xmlns="http://www.w3.org/2000/svg" xmlns:xlink="http://www.w3.org/1999/xlink">
    <title>yaoqingma</title>
    <g id="页面-1" stroke="none" stroke-width="1" fill="none" fill-rule="evenodd">
        <g id="注册" transform="translate(-98.000000, -1201.000000)" fill="#000000">
            <g id="yaoqingma" transform="translate(98.000000, 1201.000000)">
                <path d="M28.6527004,10.0956039 C28.6449668,10.0877217 28.6370005,9.8823218 28.6288599,9.87466965 L28.8595896,9.64205576 L28.6288599,10.1515855 C28.2286299,9.76253399 27.4281699,9.37215921 26.6847527,9.34897262 L25.9686067,9.33913414 L25.9686067,3.39456333 C25.9686067,1.87955245 25.1345374,1.20242337 23.6183966,1.20242337 L6.33285629,1.20242337 C4.81625031,1.20242337 4.02241912,1.87955245 4.02241912,3.39456333 L3.98241357,9.29575277 L3.27440826,9.27371687 C2.57396214,9.31347354 1.9604467,9.62836244 1.47479785,10.0884121 L1.20679551,9.61553214 L1.43485044,10.0097618 L1.46549423,10.0187372 L0.970367329,9.39574855 L0.982810918,9.38383881 C1.50840717,8.8858161 2.19007161,8.5641956 2.9289533,8.46011484 L2.9289533,3.39456333 C2.9289533,1.52289317 4.45579327,0 6.33285629,0 L23.6183966,0 C25.495227,0 27.0222995,1.52289317 27.0222995,3.39456333 L27.0222995,8.44843524 C27.8104323,8.53945557 28.53437,8.87568994 29.0870049,9.4126063 L29.1169509,9.4420642 L28.652933,10.0162632 L28.6527004,10.0956039 Z" id="Fill-1"></path>
                <g id="编组" transform="translate(0.000000, 7.282892)">
                    <path d="M2.92872071,1.46984592 L3.98218098,1.46984592 L3.98218098,4.78150136 L2.92872071,4.58392626 L2.92872071,1.46984592 Z M26.0099496,-3.27048449e-15 L27.0236369,-3.27048449e-15 L27.0236369,4.72799383 L26.0099496,4.84668848 L25.9701767,-3.27048449e-15 L26.0099496,-3.27048449e-15 Z" id="Fill-2"></path>
                    <path d="M26.5679923,22.7171082 L3.43070904,22.7171082 C1.53910911,22.7171082 0,21.3072713 0,19.5747207 L0,4.22277925 C0,3.43886526 0.326382539,2.72865357 0.970367329,2.11239648 C1.09869911,1.98944425 1.30308796,1.99128537 1.42915198,2.11642393 L14.5248661,15.104541 C14.648895,15.2274357 14.8296759,15.2982613 15.0200512,15.2982613 C15.2108335,15.2982613 15.3913818,15.2272056 15.5158759,15.1040808 L28.6265921,2.13195838 C28.7512606,2.00837326 28.9527421,2.00520883 29.081539,2.1247665 C29.1206142,2.16118614 30.039172,3.0273176 29.9987013,4.22836014 L29.9987013,19.5747207 C29.9991665,21.3072713 28.4598248,22.7171082 26.5679923,22.7171082 Z M1.78443388,4.22300939 L1.78443388,6.02368139 L1.77280436,19.2065544 C1.77280436,20.4163998 2.98803128,21.3479485 4.38310875,21.3479485 L25.4674906,21.3479485 C26.8628588,21.3479485 28.1175679,20.4163998 28.1175679,19.2065544 L28.106171,6.02368139 C28.106171,6.02051697 28.1059384,6.01689227 28.106171,6.0133251 C28.1059384,6.02368139 28.106171,4.27582649 28.106171,4.27582649 L15.8174875,15.996966 C15.5933285,16.211629 15.2746796,16.3345812 14.9441686,16.3345812 C14.6138901,16.3345812 14.2957064,16.2113988 14.0707914,15.996966 L1.78443388,4.22300939 Z" id="Fill-4"></path>
                </g>
                <path d="M12.2280355,11.5036573 L14.5453341,13.7964835 C14.6493602,13.8998738 14.7908333,13.9580992 14.9382375,13.9578697 C15.0858743,13.9580992 15.227173,13.8998738 15.3311991,13.7964835 L17.6484976,11.5036573 C17.6641394,11.4881229 17.6789088,11.4717254 17.6923409,11.4548677 C18.4936732,10.6057665 18.4752404,9.26560444 17.6402988,8.43922965 C16.9107208,7.71848905 15.7866111,7.61308499 14.9414356,8.12503116 C14.5930151,7.90904488 14.1898196,7.7948955 13.778716,7.79598081 C13.1965421,7.79443522 12.6378017,8.0234244 12.2271052,8.43226791 C11.8144316,8.83834974 11.5827133,9.39126082 11.5843327,9.96730096 C11.5827133,10.5345382 11.8071631,11.079567 12.2087305,11.4843256 C12.2153012,11.490827 12.2214648,11.4970983 12.2280355,11.5036573" id="Fill-5"></path>
            </g>
        </g>
    </g>
</svg>