<?xml version="1.0" encoding="UTF-8"?>
<svg id="_图层_2" data-name="图层 2" xmlns="http://www.w3.org/2000/svg" viewBox="0 0 54 45">
  <g id="_图层_1-2" data-name="图层 1">
    <path d="M53.98,39.67V4.3h.01v-.3c-.02-.33-.05-.66-.11-.99-.16-1.61-1.24-2.84-2.59-3.01H4.87c-.67,0-1.34,.1-1.99,.33C1.15,.98,0,2.86,0,5V38.75c-.02,1.35,.33,2.66,1.01,3.77l.02,.05,.31,.25c1.04,1.38,2.56,2.17,4.19,2.18H49.45c2.15,0,4-1.71,4.53-4.18v-.03c.03-.38,.03-.74,0-1.12h0ZM20.14,24.65l3.16,3.15,2.5,2.53c.31,.38,.74,.6,1.2,.6s.89-.22,1.2-.6l5.76-5.8,15.54,16.64H5.12l15.02-16.52Zm6.85,1.91L4.25,3.74h.24c12.22-.06,40.1-.18,45.24-.02L26.98,26.57Zm9.43-4.4l14.34-14.38v29.94l-14.34-15.56Zm-18.73,.01L3.21,38.08V7.71l14.47,14.48Z"/>
  </g>
</svg>